M48
;Layer_Color=9474304
;FILE_FORMAT=4:4
METRIC,LZ
;TYPE=PLATED
T1F00S00C0.2000
T2F00S00C0.3000
T3F00S00C0.6000
T5F00S00C0.6500
T6F00S00C1.0000
%
T01
X00433Y00027
Y00053
Y00078
Y00104
X00351407Y00113541
X00337967Y00092538
X00343428Y00073306
X00330906Y0005699
X00327298Y00036672
X0031718Y00037306
X00292388Y00035651
X0029299Y00052603
X00272774Y00051
X00266Y0006454
X00272593Y00097598
X00274869Y0010618
X00257514Y00097257
X00300179Y000971
X00314557Y0008893
X00343428Y00037573
X00352646Y00010392
X00266Y0001796
X00237889Y00018226
X00231283Y00050325
X00207452Y00047818
X00202361Y00056
X00190721Y00083211
X00215191Y00084146
X00216694Y00113732
X0022495Y0016334
X00244Y00162
X00201525Y0017578
X00192563Y00181043
X00186607Y0017501
X00255305Y00211312
X0029325Y00212
X00295571Y00226917
X00336876Y00202355
X00359949Y00195588
X00362263Y00169515
T02
X003175Y001565
X003285
X003395
Y001675
Y001785
X003285
X003175
Y001675
X003285
X00373353Y001582
Y001502
X00381843Y0015018
Y0015818
X00390541Y0015841
Y0015041
Y0020599
Y0021399
X00381843Y00214221
Y0020622
X00373353Y002062
Y002142
T03
X002293Y00176615
Y00189315
Y00202015
Y00214715
Y00227415
X00242
Y00214715
Y00202015
Y00189315
Y00176615
T05
X004122Y001533
Y002111
T06
X00383Y00034
Y00059
X00383Y00084
M30
