G04*
G04 #@! TF.GenerationSoftware,Altium Limited,Altium Designer,21.6.4 (81)*
G04*
G04 Layer_Physical_Order=3*
G04 Layer_Color=128*
%FSLAX44Y44*%
%MOMM*%
G71*
G04*
G04 #@! TF.SameCoordinates,1A298312-32F8-40E2-ABFB-EEC58CCF35F7*
G04*
G04*
G04 #@! TF.FilePolarity,Negative*
G04*
G01*
G75*
%ADD53C,0.7000*%
%ADD68C,1.0160*%
%ADD69C,1.1500*%
%ADD70O,2.2000X1.1000*%
%ADD71O,1.9000X1.1000*%
%ADD72C,1.5000*%
%ADD73C,1.1000*%
%ADD74C,0.8000*%
%ADD75C,0.2540*%
D53*
X352646Y10392D02*
D03*
X274869Y106180D02*
D03*
X300179Y97100D02*
D03*
X330906Y56990D02*
D03*
X237889Y18226D02*
D03*
X207452Y47818D02*
D03*
X192563Y181043D02*
D03*
X336876Y202355D02*
D03*
X272774Y51000D02*
D03*
X292990Y52603D02*
D03*
X337967Y92538D02*
D03*
X351407Y113541D02*
D03*
X362263Y169515D02*
D03*
X359949Y195588D02*
D03*
X257514Y97257D02*
D03*
X215191Y84146D02*
D03*
X292388Y35651D02*
D03*
X201525Y175780D02*
D03*
X295571Y226917D02*
D03*
X433000Y27000D02*
D03*
Y53000D02*
D03*
Y78000D02*
D03*
Y104000D02*
D03*
X202361Y56000D02*
D03*
X266000Y64540D02*
D03*
X224950Y163340D02*
D03*
X244000Y162000D02*
D03*
D68*
X193000Y240000D02*
G03*
X173000Y220000I0J-20000D01*
G01*
X173000Y20000D02*
G03*
X193000Y-0I20000J0D01*
G01*
X475000Y220000D02*
G03*
X455000Y240000I-20000J0D01*
G01*
Y-0D02*
G03*
X475000Y20000I0J20000D01*
G01*
X173000D02*
X173000Y220000D01*
X193000Y240000D02*
X455000Y240000D01*
X193000Y-0D02*
X455000D01*
X475000Y20000D02*
Y220000D01*
D69*
X412200Y153300D02*
D03*
Y211100D02*
D03*
D70*
X407200Y225400D02*
D03*
Y139000D02*
D03*
D71*
X449000Y225400D02*
D03*
Y139000D02*
D03*
D72*
X383000Y34000D02*
D03*
Y59000D02*
D03*
D73*
X242000Y227415D02*
D03*
X229300D02*
D03*
X242000Y214715D02*
D03*
X229300D02*
D03*
X242000Y202015D02*
D03*
X229300D02*
D03*
X242000Y189315D02*
D03*
X229300D02*
D03*
Y176615D02*
D03*
D74*
X373353Y214200D02*
D03*
X381843Y214221D02*
D03*
X390541Y213990D02*
D03*
Y150410D02*
D03*
X381843Y150180D02*
D03*
X373353Y150200D02*
D03*
X339500Y156500D02*
D03*
X328500D02*
D03*
X317500D02*
D03*
X339500Y167500D02*
D03*
X317500D02*
D03*
X339500Y178500D02*
D03*
X328500D02*
D03*
X317500D02*
D03*
X328500Y167500D02*
D03*
D75*
X334000Y240000D02*
X377000D01*
X334000Y74000D02*
Y240000D01*
Y0D02*
Y74000D01*
M02*
