G04*
G04 #@! TF.GenerationSoftware,Altium Limited,Altium Designer,21.6.4 (81)*
G04*
G04 Layer_Color=65535*
%FSLAX44Y44*%
%MOMM*%
G71*
G04*
G04 #@! TF.SameCoordinates,1A298312-32F8-40E2-ABFB-EEC58CCF35F7*
G04*
G04*
G04 #@! TF.FilePolarity,Positive*
G04*
G01*
G75*
%ADD10C,0.1530*%
%ADD11C,0.1540*%
G36*
X183000Y187192D02*
Y197192D01*
X178000Y192192D01*
X183000Y187192D01*
D02*
G37*
G36*
X260365Y144750D02*
Y144808D01*
X260596D01*
Y144865D01*
X260711D01*
Y144923D01*
X260885D01*
Y144981D01*
X261115D01*
Y145038D01*
X261231D01*
Y145096D01*
X261462D01*
Y145154D01*
X261577D01*
Y145211D01*
X261808D01*
Y145269D01*
X261923D01*
Y145327D01*
X262096D01*
Y145385D01*
X262327D01*
Y145442D01*
X262442D01*
Y145500D01*
X262731D01*
Y145558D01*
X262846D01*
Y145615D01*
X263019D01*
Y145673D01*
X263250D01*
Y145731D01*
X263423D01*
Y145788D01*
X263711D01*
Y145846D01*
X263827D01*
Y145904D01*
X264115D01*
Y145962D01*
X264288D01*
Y146019D01*
X264519D01*
Y146077D01*
X264808D01*
Y146135D01*
X265039D01*
Y146192D01*
X265442D01*
Y146250D01*
X265846D01*
Y146308D01*
X266192D01*
Y146250D01*
X266423D01*
Y146192D01*
X266712D01*
Y146135D01*
X266885D01*
Y146077D01*
X267173D01*
Y146019D01*
X267404D01*
Y145962D01*
X267577D01*
Y145904D01*
X267865D01*
Y145846D01*
X268039D01*
Y145788D01*
X268327D01*
Y145731D01*
X268500D01*
Y145673D01*
X268731D01*
Y145615D01*
X268962D01*
Y145558D01*
X269135D01*
Y145500D01*
X269423D01*
Y145442D01*
X269596D01*
Y145385D01*
X269885D01*
Y145327D01*
X270058D01*
Y145269D01*
X270289D01*
Y145211D01*
X270519D01*
Y145154D01*
X270692D01*
Y145096D01*
X270981D01*
Y145038D01*
X271154D01*
Y144981D01*
X271385D01*
Y144923D01*
X271558D01*
Y144865D01*
X271731D01*
Y144808D01*
X272019D01*
Y144750D01*
X272192D01*
Y144692D01*
X272423D01*
Y144635D01*
X272596D01*
Y144577D01*
X272827D01*
Y144519D01*
X273058D01*
Y144461D01*
X273173D01*
Y144404D01*
X273461D01*
Y144346D01*
X273635D01*
Y144289D01*
X273865D01*
Y144231D01*
X274039D01*
Y144173D01*
X274212D01*
Y144115D01*
X274442D01*
Y144058D01*
X274558D01*
Y144000D01*
X274846D01*
Y143942D01*
X274961D01*
Y143885D01*
X275192D01*
Y143827D01*
X275365D01*
Y143769D01*
X275539D01*
Y143712D01*
X275769D01*
Y143654D01*
X275885D01*
Y143596D01*
X276115D01*
Y143538D01*
X276288D01*
Y143481D01*
X276404D01*
Y143423D01*
X276635D01*
Y143365D01*
X276750D01*
Y143308D01*
X276981D01*
Y143250D01*
X277096D01*
Y143192D01*
X277211D01*
Y143135D01*
X277442D01*
Y143077D01*
X277500D01*
Y143019D01*
X277731D01*
Y142962D01*
X277788D01*
Y142904D01*
X277962D01*
Y142846D01*
X278077D01*
Y142788D01*
X278192D01*
Y142731D01*
X278308D01*
Y142615D01*
X277673D01*
Y142673D01*
X277327D01*
Y142731D01*
X276808D01*
Y142788D01*
X276519D01*
Y142846D01*
X276231D01*
Y142904D01*
X275942D01*
Y142962D01*
X275769D01*
Y143019D01*
X275481D01*
Y143077D01*
X275308D01*
Y143135D01*
X275077D01*
Y143192D01*
X274846D01*
Y143250D01*
X274673D01*
Y143308D01*
X274385D01*
Y143365D01*
X274212D01*
Y143423D01*
X273923D01*
Y143481D01*
X273750D01*
Y143538D01*
X273519D01*
Y143596D01*
X273231D01*
Y143654D01*
X273115D01*
Y143712D01*
X272769D01*
Y143769D01*
X272596D01*
Y143827D01*
X272365D01*
Y143885D01*
X272135D01*
Y143942D01*
X271961D01*
Y144000D01*
X271615D01*
Y144058D01*
X271500D01*
Y144115D01*
X271154D01*
Y144173D01*
X270981D01*
Y144231D01*
X270750D01*
Y144289D01*
X270519D01*
Y144346D01*
X270346D01*
Y144404D01*
X270000D01*
Y144461D01*
X269827D01*
Y144519D01*
X269596D01*
Y144577D01*
X269365D01*
Y144635D01*
X269192D01*
Y144692D01*
X268846D01*
Y144750D01*
X268731D01*
Y144808D01*
X268385D01*
Y144865D01*
X268211D01*
Y144923D01*
X267981D01*
Y144981D01*
X267692D01*
Y145038D01*
X267577D01*
Y145096D01*
X267231D01*
Y145154D01*
X267058D01*
Y145211D01*
X266769D01*
Y145269D01*
X266596D01*
Y145327D01*
X266308D01*
Y145269D01*
X266192D01*
Y145211D01*
X266019D01*
Y145154D01*
X265904D01*
Y145096D01*
X265673D01*
Y145038D01*
X265558D01*
Y144981D01*
X265327D01*
Y144923D01*
X265154D01*
Y144865D01*
X265039D01*
Y144808D01*
X264808D01*
Y144750D01*
X264692D01*
Y144692D01*
X264461D01*
Y144635D01*
X264288D01*
Y144577D01*
X264115D01*
Y144519D01*
X263942D01*
Y144461D01*
X263827D01*
Y144404D01*
X263538D01*
Y144346D01*
X263423D01*
Y144289D01*
X263192D01*
Y144231D01*
X263077D01*
Y144173D01*
X262904D01*
Y144115D01*
X262673D01*
Y144058D01*
X262558D01*
Y144000D01*
X262327D01*
Y143942D01*
X262211D01*
Y143885D01*
X262038D01*
Y143827D01*
X261808D01*
Y143769D01*
X261692D01*
Y143712D01*
X261462D01*
Y143654D01*
X261289D01*
Y143596D01*
X261115D01*
Y143538D01*
X260942D01*
Y143481D01*
X260769D01*
Y143423D01*
X260539D01*
Y143365D01*
X260423D01*
Y143308D01*
X260192D01*
Y143250D01*
X260077D01*
Y143192D01*
X259904D01*
Y143135D01*
X259673D01*
Y143077D01*
X259558D01*
Y143019D01*
X259327D01*
Y142962D01*
X259212D01*
Y142904D01*
X258981D01*
Y142846D01*
X258808D01*
Y142788D01*
X258692D01*
Y142731D01*
X258404D01*
Y142673D01*
X258346D01*
Y142615D01*
X258058D01*
Y142558D01*
X257942D01*
Y142500D01*
X257769D01*
Y142442D01*
X257538D01*
Y142385D01*
X257423D01*
Y142327D01*
X257192D01*
Y142269D01*
X257077D01*
Y142212D01*
X256846D01*
Y142154D01*
X256673D01*
Y142096D01*
X256558D01*
Y142038D01*
X256327D01*
Y141981D01*
X256211D01*
Y141923D01*
X255981D01*
Y141865D01*
X255808D01*
Y141808D01*
X255635D01*
Y141750D01*
X255462D01*
Y141692D01*
X255289D01*
Y141635D01*
X255058D01*
Y141577D01*
X254942D01*
Y141519D01*
X254711D01*
Y141461D01*
X254538D01*
Y141404D01*
X254423D01*
Y141346D01*
X254308D01*
Y141231D01*
X254250D01*
Y141173D01*
X254192D01*
Y141058D01*
X254135D01*
Y141000D01*
X254077D01*
Y140885D01*
X254019D01*
Y140769D01*
X253962D01*
Y140711D01*
X253904D01*
Y140596D01*
X253846D01*
Y140539D01*
X253789D01*
Y140423D01*
X253731D01*
Y140365D01*
X253673D01*
Y140250D01*
X253615D01*
Y140135D01*
X253558D01*
Y140077D01*
X253500D01*
Y139962D01*
X253442D01*
Y139904D01*
X253385D01*
Y139789D01*
X253327D01*
Y139731D01*
X253269D01*
Y139673D01*
X253211D01*
Y139500D01*
X253154D01*
Y139442D01*
X253096D01*
Y139327D01*
X253039D01*
Y139269D01*
X252981D01*
Y139212D01*
X252923D01*
Y139096D01*
X252865D01*
Y138981D01*
X252808D01*
Y138865D01*
X252750D01*
Y138808D01*
X252692D01*
Y138750D01*
X252635D01*
Y138635D01*
X252577D01*
Y138577D01*
X252519D01*
Y138462D01*
X252461D01*
Y138346D01*
X252404D01*
Y138288D01*
X252346D01*
Y138173D01*
X252288D01*
Y138115D01*
X252231D01*
Y138000D01*
X252173D01*
Y137942D01*
X252115D01*
Y137827D01*
X252058D01*
Y137711D01*
X252000D01*
Y137654D01*
X251942D01*
Y137538D01*
X251885D01*
Y137481D01*
X251827D01*
Y137365D01*
X251769D01*
Y137308D01*
X251712D01*
Y137192D01*
X251654D01*
Y137077D01*
X251596D01*
Y137019D01*
X251539D01*
Y136904D01*
X251481D01*
Y136846D01*
X251423D01*
Y136731D01*
X251365D01*
Y136615D01*
X251308D01*
Y136558D01*
X251250D01*
Y136442D01*
X251192D01*
Y136385D01*
X251135D01*
Y136269D01*
X251077D01*
Y136212D01*
X251019D01*
Y136096D01*
X250961D01*
Y135981D01*
X250904D01*
Y135923D01*
X250846D01*
Y135808D01*
X250788D01*
Y135750D01*
X250731D01*
Y135635D01*
X250673D01*
Y135577D01*
X250615D01*
Y135462D01*
X250558D01*
Y135346D01*
X250500D01*
Y135288D01*
X250442D01*
Y135173D01*
X250385D01*
Y135115D01*
X250327D01*
Y135000D01*
X250269D01*
Y134885D01*
X250212D01*
Y134827D01*
X250154D01*
Y134712D01*
X250096D01*
Y134654D01*
X250039D01*
Y134538D01*
X249981D01*
Y134481D01*
X249923D01*
Y134365D01*
X249865D01*
Y134250D01*
X249808D01*
Y134192D01*
X249750D01*
Y134077D01*
X249692D01*
Y134019D01*
X249635D01*
Y133904D01*
X249577D01*
Y133846D01*
X249519D01*
Y133731D01*
X249461D01*
Y133615D01*
X249404D01*
Y133558D01*
X249346D01*
Y133442D01*
X249289D01*
Y133385D01*
X249231D01*
Y133269D01*
X249173D01*
Y133211D01*
X249115D01*
Y133096D01*
X249058D01*
Y132981D01*
X249000D01*
Y132923D01*
X248942D01*
Y132808D01*
X248885D01*
Y132750D01*
X248827D01*
Y132635D01*
X248769D01*
Y132519D01*
X248711D01*
Y132462D01*
X248654D01*
Y132346D01*
X248596D01*
Y132289D01*
X248538D01*
Y132173D01*
X248481D01*
Y132115D01*
X248423D01*
Y132058D01*
X248365D01*
Y131885D01*
X248308D01*
Y131827D01*
X248250D01*
Y131712D01*
X248192D01*
Y131654D01*
X248135D01*
Y131596D01*
X248077D01*
Y131481D01*
X248019D01*
Y131365D01*
X247962D01*
Y131308D01*
X247904D01*
Y131192D01*
X247846D01*
Y131135D01*
X247789D01*
Y131019D01*
X247731D01*
Y130962D01*
X247673D01*
Y130846D01*
X247615D01*
Y130731D01*
X247558D01*
Y130673D01*
X247500D01*
Y130558D01*
X247442D01*
Y130500D01*
X247385D01*
Y130385D01*
X247327D01*
Y130327D01*
X247269D01*
Y130154D01*
X247500D01*
Y130096D01*
X247615D01*
Y130038D01*
X247789D01*
Y129981D01*
X247904D01*
Y129923D01*
X248019D01*
Y129865D01*
X248135D01*
Y129808D01*
X248192D01*
Y129750D01*
X248250D01*
Y129692D01*
X248308D01*
Y129635D01*
X248365D01*
Y129519D01*
X248423D01*
Y129404D01*
X248481D01*
Y129289D01*
X248538D01*
Y129115D01*
X248596D01*
Y128885D01*
X248654D01*
Y127962D01*
X248596D01*
Y127615D01*
X248538D01*
Y127385D01*
X248481D01*
Y127096D01*
X248423D01*
Y126865D01*
X248481D01*
Y126923D01*
X248596D01*
Y126981D01*
X248711D01*
Y127038D01*
X248769D01*
Y127096D01*
X248942D01*
Y127154D01*
X249000D01*
Y127212D01*
X249173D01*
Y127269D01*
X249231D01*
Y127327D01*
X249346D01*
Y127385D01*
X249519D01*
Y127442D01*
X249577D01*
Y127500D01*
X249692D01*
Y127558D01*
X249808D01*
Y127615D01*
X249923D01*
Y127673D01*
X250039D01*
Y127731D01*
X250154D01*
Y127788D01*
X250269D01*
Y127846D01*
X250385D01*
Y127904D01*
X250500D01*
Y127962D01*
X250615D01*
Y128019D01*
X250731D01*
Y128077D01*
X250846D01*
Y128135D01*
X250961D01*
Y128192D01*
X251077D01*
Y128250D01*
X251192D01*
Y128308D01*
X251308D01*
Y128365D01*
X251481D01*
Y128423D01*
X251539D01*
Y128481D01*
X251712D01*
Y128539D01*
X251769D01*
Y128596D01*
X251942D01*
Y128654D01*
X252058D01*
Y128712D01*
X252173D01*
Y128769D01*
X252346D01*
Y128827D01*
X252404D01*
Y128885D01*
X252577D01*
Y128942D01*
X252692D01*
Y129000D01*
X252808D01*
Y129058D01*
X252981D01*
Y129115D01*
X253039D01*
Y129173D01*
X253211D01*
Y129231D01*
X253327D01*
Y129289D01*
X253500D01*
Y129346D01*
X253615D01*
Y129404D01*
X253731D01*
Y129461D01*
X253904D01*
Y129519D01*
X254019D01*
Y129577D01*
X254192D01*
Y129635D01*
X254308D01*
Y129692D01*
X254423D01*
Y129750D01*
X254596D01*
Y129808D01*
X254711D01*
Y129865D01*
X254942D01*
Y129923D01*
X255000D01*
Y129981D01*
X255173D01*
Y130038D01*
X255346D01*
Y130096D01*
X255462D01*
Y130154D01*
X255692D01*
Y130211D01*
X255808D01*
Y130269D01*
X255981D01*
Y130327D01*
X256154D01*
Y130385D01*
X256269D01*
Y130442D01*
X256500D01*
Y130500D01*
X256615D01*
Y130558D01*
X256846D01*
Y130615D01*
X256961D01*
Y130673D01*
X257192D01*
Y130731D01*
X257365D01*
Y130788D01*
X257481D01*
Y130846D01*
X257769D01*
Y130904D01*
X257885D01*
Y130962D01*
X258173D01*
Y131019D01*
X258346D01*
Y131077D01*
X258519D01*
Y131135D01*
X258808D01*
Y131192D01*
X258923D01*
Y131250D01*
X259269D01*
Y131308D01*
X259442D01*
Y131365D01*
X259731D01*
Y131423D01*
X260019D01*
Y131481D01*
X260250D01*
Y131538D01*
X260711D01*
Y131596D01*
X260942D01*
Y131654D01*
X261635D01*
Y131712D01*
X262731D01*
Y131769D01*
X263077D01*
Y131827D01*
X263538D01*
Y131885D01*
X263827D01*
Y131942D01*
X264346D01*
Y132000D01*
X264635D01*
Y132058D01*
X265039D01*
Y132115D01*
X265442D01*
Y132173D01*
X265731D01*
Y132231D01*
X266250D01*
Y132289D01*
X266539D01*
Y132346D01*
X267058D01*
Y132404D01*
X267404D01*
Y132462D01*
X267750D01*
Y132519D01*
X268269D01*
Y132577D01*
X268558D01*
Y132635D01*
X269135D01*
Y132692D01*
X269423D01*
Y132750D01*
X269942D01*
Y132808D01*
X270346D01*
Y132865D01*
X270692D01*
Y132923D01*
X271269D01*
Y132981D01*
X271615D01*
Y133039D01*
X272250D01*
Y133096D01*
X272654D01*
Y133154D01*
X273173D01*
Y133211D01*
X274731D01*
Y133154D01*
X275308D01*
Y133096D01*
X275827D01*
Y133039D01*
X276635D01*
Y132981D01*
X277038D01*
Y132923D01*
X277788D01*
Y132865D01*
X278192D01*
Y132808D01*
X278711D01*
Y132750D01*
X279289D01*
Y132692D01*
X279635D01*
Y132635D01*
X280269D01*
Y132577D01*
X280615D01*
Y132519D01*
X281135D01*
Y132462D01*
X281539D01*
Y132404D01*
X281827D01*
Y132346D01*
X282346D01*
Y132289D01*
X282635D01*
Y132231D01*
X283096D01*
Y132173D01*
X283385D01*
Y132115D01*
X283673D01*
Y132058D01*
X284019D01*
Y132000D01*
X284250D01*
Y131942D01*
X284654D01*
Y131885D01*
X284827D01*
Y131827D01*
X285173D01*
Y131769D01*
X285404D01*
Y131712D01*
X285577D01*
Y131654D01*
X285865D01*
Y131596D01*
X286038D01*
Y131538D01*
X286269D01*
Y131481D01*
X286385D01*
Y131423D01*
X286615D01*
Y131365D01*
X286731D01*
Y131308D01*
X286789D01*
Y131250D01*
X286269D01*
Y131308D01*
X285981D01*
Y131365D01*
X285577D01*
Y131423D01*
X285173D01*
Y131481D01*
X284885D01*
Y131538D01*
X284308D01*
Y131596D01*
X284019D01*
Y131654D01*
X283500D01*
Y131712D01*
X283154D01*
Y131769D01*
X282750D01*
Y131827D01*
X282231D01*
Y131885D01*
X281885D01*
Y131942D01*
X281250D01*
Y132000D01*
X280904D01*
Y132058D01*
X280327D01*
Y132115D01*
X279808D01*
Y132173D01*
X279346D01*
Y132231D01*
X278538D01*
Y132289D01*
X278135D01*
Y132346D01*
X277154D01*
Y132404D01*
X276346D01*
Y132462D01*
X274327D01*
Y132404D01*
X274212D01*
Y132346D01*
X273750D01*
Y132289D01*
X273461D01*
Y132231D01*
X272942D01*
Y132173D01*
X272654D01*
Y132115D01*
X272250D01*
Y132058D01*
X271846D01*
Y132000D01*
X271558D01*
Y131942D01*
X271038D01*
Y131885D01*
X270750D01*
Y131827D01*
X270289D01*
Y131769D01*
X269942D01*
Y131712D01*
X269596D01*
Y131654D01*
X269077D01*
Y131596D01*
X268789D01*
Y131538D01*
X268269D01*
Y131481D01*
X267981D01*
Y131423D01*
X267577D01*
Y131365D01*
X267115D01*
Y131308D01*
X266827D01*
Y131250D01*
X266308D01*
Y131192D01*
X266019D01*
Y131135D01*
X265500D01*
Y131077D01*
X265154D01*
Y131019D01*
X264808D01*
Y130962D01*
X264288D01*
Y130904D01*
X264000D01*
Y130846D01*
X263481D01*
Y130788D01*
X263135D01*
Y130731D01*
X262731D01*
Y130673D01*
X262385D01*
Y130615D01*
X262154D01*
Y130558D01*
X261808D01*
Y130500D01*
X261635D01*
Y130442D01*
X261346D01*
Y130385D01*
X261173D01*
Y130327D01*
X261000D01*
Y130269D01*
X260711D01*
Y130211D01*
X260596D01*
Y130154D01*
X260308D01*
Y130096D01*
X260192D01*
Y130038D01*
X260019D01*
Y129981D01*
X259788D01*
Y129923D01*
X259673D01*
Y129865D01*
X259442D01*
Y129808D01*
X259327D01*
Y129750D01*
X259096D01*
Y129692D01*
X258981D01*
Y129635D01*
X258808D01*
Y129577D01*
X258635D01*
Y129519D01*
X258519D01*
Y129461D01*
X258288D01*
Y129404D01*
X258173D01*
Y129346D01*
X258000D01*
Y129289D01*
X257827D01*
Y129231D01*
X257769D01*
Y129173D01*
X257538D01*
Y129115D01*
X257423D01*
Y129058D01*
X257250D01*
Y129000D01*
X257135D01*
Y128942D01*
X256961D01*
Y128885D01*
X256789D01*
Y128827D01*
X256731D01*
Y128769D01*
X256500D01*
Y128712D01*
X256385D01*
Y128654D01*
X256269D01*
Y128596D01*
X256096D01*
Y128539D01*
X255981D01*
Y128481D01*
X255808D01*
Y128423D01*
X255692D01*
Y128365D01*
X255519D01*
Y128308D01*
X255404D01*
Y128250D01*
X255289D01*
Y128192D01*
X255115D01*
Y128135D01*
X255058D01*
Y128077D01*
X254827D01*
Y128019D01*
X254769D01*
Y127962D01*
X254596D01*
Y127904D01*
X254481D01*
Y127846D01*
X254365D01*
Y127788D01*
X254192D01*
Y127731D01*
X254077D01*
Y127673D01*
X253904D01*
Y127615D01*
X253789D01*
Y127558D01*
X253731D01*
Y127500D01*
X253558D01*
Y127442D01*
X253442D01*
Y127385D01*
X253269D01*
Y127327D01*
X253154D01*
Y127269D01*
X253039D01*
Y127212D01*
X252923D01*
Y127154D01*
X252808D01*
Y127096D01*
X252635D01*
Y127038D01*
X252577D01*
Y126981D01*
X252404D01*
Y126923D01*
X252288D01*
Y126865D01*
X252173D01*
Y126808D01*
X252000D01*
Y126750D01*
X251942D01*
Y126692D01*
X251769D01*
Y126635D01*
X251654D01*
Y126577D01*
X251539D01*
Y126519D01*
X251423D01*
Y126461D01*
X251308D01*
Y126404D01*
X251135D01*
Y126346D01*
X251077D01*
Y126288D01*
X250904D01*
Y126231D01*
X250788D01*
Y126173D01*
X250731D01*
Y126115D01*
X250558D01*
Y126058D01*
X250500D01*
Y126000D01*
X250327D01*
Y125942D01*
X250212D01*
Y125885D01*
X250096D01*
Y125827D01*
X249981D01*
Y125769D01*
X249865D01*
Y125711D01*
X249692D01*
Y125654D01*
X249635D01*
Y125596D01*
X249461D01*
Y125539D01*
X249404D01*
Y125481D01*
X249346D01*
Y125423D01*
X249404D01*
Y125365D01*
X249692D01*
Y125308D01*
X250212D01*
Y125250D01*
X250500D01*
Y125192D01*
X250904D01*
Y125135D01*
X251308D01*
Y125077D01*
X251596D01*
Y125019D01*
X252115D01*
Y124962D01*
X252346D01*
Y124904D01*
X252808D01*
Y124846D01*
X253096D01*
Y124788D01*
X253385D01*
Y124731D01*
X253789D01*
Y124673D01*
X254019D01*
Y124615D01*
X254481D01*
Y124558D01*
X254711D01*
Y124500D01*
X255000D01*
Y124442D01*
X255346D01*
Y124385D01*
X255577D01*
Y124327D01*
X255981D01*
Y124269D01*
X256154D01*
Y124212D01*
X256500D01*
Y124154D01*
X256731D01*
Y124096D01*
X256961D01*
Y124038D01*
X257250D01*
Y123981D01*
X257423D01*
Y123923D01*
X257712D01*
Y123865D01*
X257885D01*
Y123808D01*
X258115D01*
Y123750D01*
X258346D01*
Y123692D01*
X258461D01*
Y123635D01*
X258750D01*
Y123577D01*
X258865D01*
Y123519D01*
X259096D01*
Y123462D01*
X259212D01*
Y123404D01*
X259327D01*
Y123346D01*
X259500D01*
Y123288D01*
X259615D01*
Y123231D01*
X259788D01*
Y123173D01*
X259846D01*
Y123115D01*
X259961D01*
Y123058D01*
X260019D01*
Y123000D01*
X260135D01*
Y122942D01*
X260308D01*
Y122885D01*
X260365D01*
Y122827D01*
X260539D01*
Y122769D01*
X260654D01*
Y122711D01*
X260769D01*
Y122654D01*
X260885D01*
Y122596D01*
X261000D01*
Y122538D01*
X261115D01*
Y122481D01*
X261231D01*
Y122423D01*
X261346D01*
Y122365D01*
X261404D01*
Y122308D01*
X261519D01*
Y122250D01*
X261635D01*
Y122192D01*
X261692D01*
Y122135D01*
X261865D01*
Y122077D01*
X261923D01*
Y122019D01*
X262038D01*
Y121961D01*
X262154D01*
Y121904D01*
X262211D01*
Y121846D01*
X262327D01*
Y121789D01*
X262442D01*
Y121731D01*
X262500D01*
Y121673D01*
X262615D01*
Y121615D01*
X262673D01*
Y121558D01*
X262846D01*
Y121500D01*
X262904D01*
Y121442D01*
X263019D01*
Y121385D01*
X263077D01*
Y121327D01*
X263192D01*
Y121269D01*
X263308D01*
Y121212D01*
X263365D01*
Y121154D01*
X263481D01*
Y121096D01*
X263538D01*
Y121039D01*
X263654D01*
Y120981D01*
X263711D01*
Y120923D01*
X263769D01*
Y120865D01*
X263942D01*
Y120808D01*
X264000D01*
Y120750D01*
X264058D01*
Y120692D01*
X264173D01*
Y120635D01*
X264231D01*
Y120577D01*
X264346D01*
Y120519D01*
X264404D01*
Y120462D01*
X264519D01*
Y120404D01*
X264577D01*
Y120346D01*
X264692D01*
Y120288D01*
X264808D01*
Y120231D01*
X264865D01*
Y120173D01*
X264981D01*
Y120115D01*
X265039D01*
Y120058D01*
X265096D01*
Y120000D01*
X265212D01*
Y119942D01*
X265269D01*
Y119885D01*
X265385D01*
Y119827D01*
X265442D01*
Y119769D01*
X265558D01*
Y119712D01*
X265615D01*
Y119654D01*
X265731D01*
Y119596D01*
X265788D01*
Y119538D01*
X265846D01*
Y119481D01*
X265961D01*
Y119423D01*
X266019D01*
Y119365D01*
X266135D01*
Y119308D01*
X266192D01*
Y119250D01*
X266250D01*
Y119192D01*
X266365D01*
Y119135D01*
X266423D01*
Y119077D01*
X266481D01*
Y119019D01*
X266596D01*
Y118961D01*
X266654D01*
Y118904D01*
X266769D01*
Y118846D01*
X266827D01*
Y118788D01*
X266885D01*
Y118731D01*
X266942D01*
Y118673D01*
X267000D01*
Y118615D01*
X267058D01*
Y118558D01*
X266942D01*
Y118615D01*
X266827D01*
Y118673D01*
X266654D01*
Y118731D01*
X266596D01*
Y118788D01*
X266423D01*
Y118846D01*
X266365D01*
Y118904D01*
X266250D01*
Y118961D01*
X266077D01*
Y119019D01*
X266019D01*
Y119077D01*
X265846D01*
Y119135D01*
X265788D01*
Y119192D01*
X265615D01*
Y119250D01*
X265500D01*
Y119308D01*
X265442D01*
Y119365D01*
X265269D01*
Y119423D01*
X265212D01*
Y119481D01*
X265039D01*
Y119538D01*
X264981D01*
Y119596D01*
X264865D01*
Y119654D01*
X264750D01*
Y119712D01*
X264635D01*
Y119769D01*
X264519D01*
Y119827D01*
X264404D01*
Y119885D01*
X264288D01*
Y119942D01*
X264173D01*
Y120000D01*
X264115D01*
Y120058D01*
X263942D01*
Y120115D01*
X263885D01*
Y120173D01*
X263711D01*
Y120231D01*
X263654D01*
Y120288D01*
X263538D01*
Y120346D01*
X263423D01*
Y120404D01*
X263308D01*
Y120462D01*
X263192D01*
Y120519D01*
X263077D01*
Y120577D01*
X262962D01*
Y120635D01*
X262846D01*
Y120692D01*
X262789D01*
Y120750D01*
X262615D01*
Y120808D01*
X262558D01*
Y120865D01*
X262385D01*
Y120923D01*
X262327D01*
Y120981D01*
X262211D01*
Y121039D01*
X262096D01*
Y121096D01*
X261981D01*
Y121154D01*
X261865D01*
Y121212D01*
X261808D01*
Y121269D01*
X261635D01*
Y121327D01*
X261577D01*
Y121385D01*
X261462D01*
Y121442D01*
X261289D01*
Y121500D01*
X261231D01*
Y121558D01*
X261115D01*
Y121615D01*
X261000D01*
Y121673D01*
X260885D01*
Y121731D01*
X260769D01*
Y121789D01*
X260711D01*
Y121846D01*
X260539D01*
Y121904D01*
X260481D01*
Y121961D01*
X260308D01*
Y122019D01*
X260250D01*
Y122077D01*
X260019D01*
Y122019D01*
X259904D01*
Y121961D01*
X259038D01*
Y122019D01*
X258923D01*
Y122077D01*
X258750D01*
Y122135D01*
X258577D01*
Y122192D01*
X258461D01*
Y122250D01*
X258173D01*
Y122308D01*
X258058D01*
Y122365D01*
X257827D01*
Y122423D01*
X257596D01*
Y122481D01*
X257481D01*
Y122538D01*
X257135D01*
Y122596D01*
X257019D01*
Y122654D01*
X256673D01*
Y122711D01*
X256442D01*
Y122769D01*
X256211D01*
Y122827D01*
X255865D01*
Y122885D01*
X255692D01*
Y122942D01*
X255231D01*
Y123000D01*
X254942D01*
Y123058D01*
X254538D01*
Y123115D01*
X254135D01*
Y123173D01*
X253789D01*
Y123231D01*
X253096D01*
Y123288D01*
X252692D01*
Y123346D01*
X251769D01*
Y123404D01*
X250904D01*
Y123462D01*
X247789D01*
Y123404D01*
X246289D01*
Y123462D01*
X245942D01*
Y123519D01*
X245596D01*
Y123577D01*
X245481D01*
Y123635D01*
X245250D01*
Y123692D01*
X245135D01*
Y123750D01*
X245019D01*
Y123808D01*
X244904D01*
Y123865D01*
X244846D01*
Y123923D01*
X244731D01*
Y123865D01*
X244673D01*
Y123519D01*
X244615D01*
Y123173D01*
X244558D01*
Y123058D01*
X244500D01*
Y122885D01*
X244442D01*
Y122769D01*
X244385D01*
Y122711D01*
X244327D01*
Y122596D01*
X244269D01*
Y122538D01*
X244212D01*
Y122423D01*
X244154D01*
Y122365D01*
X244039D01*
Y122308D01*
X243981D01*
Y122250D01*
X243865D01*
Y122192D01*
X243808D01*
Y120404D01*
X243750D01*
Y119596D01*
X243692D01*
Y118961D01*
X243635D01*
Y118500D01*
X243577D01*
Y118269D01*
X243519D01*
Y117923D01*
X243461D01*
Y117635D01*
X243404D01*
Y117000D01*
X243346D01*
Y116538D01*
X243288D01*
Y116135D01*
X243231D01*
Y115500D01*
X243173D01*
Y115211D01*
X243115D01*
Y114577D01*
X243058D01*
Y114231D01*
X243000D01*
Y113769D01*
X242942D01*
Y113308D01*
X242885D01*
Y112962D01*
X242827D01*
Y112442D01*
X242769D01*
Y112154D01*
X242712D01*
Y111692D01*
X242654D01*
Y111346D01*
X242596D01*
Y111115D01*
X242539D01*
Y110711D01*
X242481D01*
Y110481D01*
X242423D01*
Y110192D01*
X242365D01*
Y110135D01*
X242250D01*
Y110250D01*
X242192D01*
Y110827D01*
X242135D01*
Y113654D01*
X242192D01*
Y115385D01*
X242250D01*
Y117289D01*
X242308D01*
Y118327D01*
X242250D01*
Y120346D01*
X242308D01*
Y120981D01*
X242135D01*
Y120923D01*
X242077D01*
Y120865D01*
X242019D01*
Y120808D01*
X241961D01*
Y120750D01*
X241904D01*
Y120692D01*
X241846D01*
Y120577D01*
X241731D01*
Y120462D01*
X241673D01*
Y120404D01*
X241615D01*
Y120346D01*
X241558D01*
Y120288D01*
X241500D01*
Y120231D01*
X241442D01*
Y120173D01*
X241385D01*
Y120115D01*
X241327D01*
Y120000D01*
X241269D01*
Y119942D01*
X241211D01*
Y119885D01*
X241154D01*
Y119827D01*
X241096D01*
Y119769D01*
X241038D01*
Y119654D01*
X240981D01*
Y119596D01*
X240923D01*
Y119538D01*
X240865D01*
Y119481D01*
X240808D01*
Y119423D01*
X240750D01*
Y119365D01*
X240692D01*
Y119308D01*
X240635D01*
Y119192D01*
X240577D01*
Y119135D01*
X240519D01*
Y119077D01*
X240462D01*
Y118961D01*
X240404D01*
Y118904D01*
X240346D01*
Y118846D01*
X240288D01*
Y118788D01*
X240231D01*
Y118731D01*
X240173D01*
Y118615D01*
X240115D01*
Y118558D01*
X240058D01*
Y118500D01*
X240000D01*
Y118442D01*
X239942D01*
Y118327D01*
X239885D01*
Y118269D01*
X239827D01*
Y118211D01*
X239769D01*
Y118154D01*
X239711D01*
Y118096D01*
X239654D01*
Y117981D01*
X239596D01*
Y117923D01*
X239538D01*
Y117865D01*
X239481D01*
Y117808D01*
X239423D01*
Y117750D01*
X239365D01*
Y117635D01*
X239308D01*
Y117577D01*
X239250D01*
Y117519D01*
X239192D01*
Y117404D01*
X239135D01*
Y117346D01*
X239077D01*
Y117289D01*
X239019D01*
Y117231D01*
X238962D01*
Y117115D01*
X238904D01*
Y117058D01*
X238846D01*
Y117000D01*
X238788D01*
Y116942D01*
X238731D01*
Y116885D01*
X238673D01*
Y116769D01*
X238615D01*
Y116712D01*
X238558D01*
Y116654D01*
X238500D01*
Y116596D01*
X238442D01*
Y116481D01*
X238385D01*
Y116423D01*
X238327D01*
Y116365D01*
X238269D01*
Y116250D01*
X238211D01*
Y116192D01*
X238154D01*
Y116135D01*
X238096D01*
Y116077D01*
X238039D01*
Y116019D01*
X237981D01*
Y115904D01*
X237923D01*
Y115846D01*
X237865D01*
Y115788D01*
X237808D01*
Y115731D01*
X237750D01*
Y115615D01*
X237692D01*
Y115558D01*
X237635D01*
Y115500D01*
X237577D01*
Y115385D01*
X237519D01*
Y115327D01*
X237461D01*
Y115269D01*
X237404D01*
Y115211D01*
X237346D01*
Y115154D01*
X237288D01*
Y115038D01*
X237231D01*
Y114981D01*
X237173D01*
Y114923D01*
X237115D01*
Y114865D01*
X237058D01*
Y114750D01*
X237000D01*
Y114692D01*
X236942D01*
Y114635D01*
X236885D01*
Y114577D01*
X236827D01*
Y114519D01*
X236769D01*
Y114404D01*
X236712D01*
Y114346D01*
X236654D01*
Y114289D01*
X236596D01*
Y114231D01*
X236539D01*
Y114115D01*
X236481D01*
Y114058D01*
X236423D01*
Y114000D01*
X236365D01*
Y113942D01*
X236308D01*
Y113827D01*
X236250D01*
Y113769D01*
X236192D01*
Y113712D01*
X236135D01*
Y113654D01*
X236077D01*
Y113596D01*
X236019D01*
Y113481D01*
X235961D01*
Y113423D01*
X235904D01*
Y113365D01*
X235846D01*
Y113308D01*
X235788D01*
Y113192D01*
X235731D01*
Y113135D01*
X235673D01*
Y113077D01*
X235615D01*
Y113019D01*
X235558D01*
Y112962D01*
X235500D01*
Y112846D01*
X235442D01*
Y112788D01*
X235385D01*
Y112731D01*
X235327D01*
Y112673D01*
X235269D01*
Y112558D01*
X235212D01*
Y112500D01*
X235154D01*
Y112442D01*
X235096D01*
Y112385D01*
X235039D01*
Y112327D01*
X234981D01*
Y112212D01*
X234923D01*
Y112154D01*
X234865D01*
Y112096D01*
X234808D01*
Y112038D01*
X234750D01*
Y111981D01*
X234692D01*
Y111865D01*
X234635D01*
Y111808D01*
X234577D01*
Y111750D01*
X234519D01*
Y111692D01*
X234461D01*
Y111635D01*
X234404D01*
Y111519D01*
X234346D01*
Y111461D01*
X234289D01*
Y111404D01*
X234231D01*
Y111346D01*
X234173D01*
Y111288D01*
X234115D01*
Y111173D01*
X234058D01*
Y111115D01*
X234000D01*
Y111058D01*
X233942D01*
Y111000D01*
X233885D01*
Y110942D01*
X233827D01*
Y110885D01*
X233769D01*
Y110769D01*
X233711D01*
Y110711D01*
X233654D01*
Y110654D01*
X233596D01*
Y110596D01*
X233538D01*
Y110539D01*
X233481D01*
Y110481D01*
X233423D01*
Y110365D01*
X233365D01*
Y110308D01*
X233308D01*
Y110250D01*
X233250D01*
Y110192D01*
X233192D01*
Y110135D01*
X233135D01*
Y110077D01*
X233077D01*
Y110019D01*
X233019D01*
Y109904D01*
X232962D01*
Y109789D01*
X232904D01*
Y109731D01*
X232846D01*
Y109615D01*
X232789D01*
Y109558D01*
X232731D01*
Y109442D01*
X232673D01*
Y109385D01*
X232615D01*
Y109269D01*
X232558D01*
Y109154D01*
X232500D01*
Y109096D01*
X232442D01*
Y108981D01*
X232385D01*
Y108923D01*
X232327D01*
Y108808D01*
X232269D01*
Y108692D01*
X232211D01*
Y108635D01*
X232154D01*
Y108519D01*
X232096D01*
Y108462D01*
X232038D01*
Y108346D01*
X231981D01*
Y108288D01*
X231923D01*
Y108173D01*
X231865D01*
Y108058D01*
X231808D01*
Y108000D01*
X231750D01*
Y107885D01*
X231692D01*
Y107827D01*
X231635D01*
Y107711D01*
X231577D01*
Y107596D01*
X231519D01*
Y107538D01*
X231462D01*
Y107423D01*
X231404D01*
Y107365D01*
X231346D01*
Y107250D01*
X231289D01*
Y107192D01*
X231231D01*
Y107077D01*
X231173D01*
Y106961D01*
X231115D01*
Y106904D01*
X231058D01*
Y106789D01*
X231000D01*
Y106731D01*
X230942D01*
Y106615D01*
X230885D01*
Y106558D01*
X230827D01*
Y106442D01*
X230769D01*
Y106327D01*
X230711D01*
Y106269D01*
X230654D01*
Y106154D01*
X230596D01*
Y106096D01*
X230539D01*
Y105981D01*
X230481D01*
Y105923D01*
X230423D01*
Y105808D01*
X230365D01*
Y105692D01*
X230308D01*
Y105635D01*
X230250D01*
Y105519D01*
X230192D01*
Y105462D01*
X230135D01*
Y105346D01*
X230077D01*
Y105231D01*
X230019D01*
Y105173D01*
X229961D01*
Y105058D01*
X229904D01*
Y105000D01*
X229846D01*
Y104885D01*
X229788D01*
Y104827D01*
X229731D01*
Y104769D01*
X229673D01*
Y104654D01*
X229615D01*
Y104538D01*
X229558D01*
Y104423D01*
X229500D01*
Y104365D01*
X229442D01*
Y104308D01*
X229385D01*
Y104192D01*
X229327D01*
Y104135D01*
X229269D01*
Y104019D01*
X229212D01*
Y103961D01*
X229154D01*
Y103846D01*
X229096D01*
Y103731D01*
X229039D01*
Y103673D01*
X228981D01*
Y103558D01*
X228923D01*
Y103500D01*
X228865D01*
Y103385D01*
X228808D01*
Y103327D01*
X228750D01*
Y103211D01*
X228692D01*
Y103096D01*
X228635D01*
Y103039D01*
X228577D01*
Y102923D01*
X228519D01*
Y102865D01*
X228461D01*
Y102750D01*
X228404D01*
Y102692D01*
X228346D01*
Y102577D01*
X228288D01*
Y102462D01*
X228231D01*
Y102404D01*
X228173D01*
Y102289D01*
X228115D01*
Y102231D01*
X228058D01*
Y102173D01*
X228000D01*
Y102058D01*
X227942D01*
Y102000D01*
X227885D01*
Y101885D01*
X227827D01*
Y101827D01*
X227769D01*
Y101712D01*
X227712D01*
Y101596D01*
X227654D01*
Y101538D01*
X227596D01*
Y101423D01*
X227539D01*
Y101365D01*
X227481D01*
Y101250D01*
X227423D01*
Y101192D01*
X227365D01*
Y101077D01*
X227308D01*
Y101019D01*
X227250D01*
Y100962D01*
X227192D01*
Y100846D01*
X227135D01*
Y100788D01*
X227077D01*
Y100673D01*
X227019D01*
Y100615D01*
X226961D01*
Y100500D01*
X226904D01*
Y100385D01*
X226788D01*
Y100269D01*
X226731D01*
Y100211D01*
X226673D01*
Y100096D01*
X226615D01*
Y100038D01*
X226558D01*
Y99981D01*
X226500D01*
Y99923D01*
X226442D01*
Y99865D01*
X226385D01*
Y99750D01*
X226327D01*
Y99692D01*
X226269D01*
Y99635D01*
X226211D01*
Y99577D01*
X226154D01*
Y99519D01*
X226096D01*
Y99404D01*
X226038D01*
Y99346D01*
X225981D01*
Y99288D01*
X225923D01*
Y99173D01*
X225865D01*
Y99115D01*
X225808D01*
Y99058D01*
X225750D01*
Y99000D01*
X225692D01*
Y98942D01*
X225635D01*
Y98827D01*
X225577D01*
Y98769D01*
X225519D01*
Y98712D01*
X225462D01*
Y98654D01*
X225404D01*
Y98539D01*
X225346D01*
Y98481D01*
X225288D01*
Y98423D01*
X225231D01*
Y98365D01*
X225173D01*
Y98308D01*
X225115D01*
Y98192D01*
X225058D01*
Y98135D01*
X225000D01*
Y98077D01*
X224942D01*
Y98019D01*
X224885D01*
Y97962D01*
X224827D01*
Y97846D01*
X224769D01*
Y97788D01*
X224711D01*
Y97731D01*
X224654D01*
Y97673D01*
X224596D01*
Y97558D01*
X224538D01*
Y97500D01*
X224481D01*
Y97442D01*
X224423D01*
Y97385D01*
X224365D01*
Y97327D01*
X224308D01*
Y97212D01*
X224250D01*
Y97154D01*
X224192D01*
Y97096D01*
X224135D01*
Y97038D01*
X224077D01*
Y97096D01*
X224019D01*
Y97212D01*
X224077D01*
Y97327D01*
X224135D01*
Y97500D01*
X224192D01*
Y97615D01*
X224250D01*
Y97788D01*
X224308D01*
Y97962D01*
X224365D01*
Y98019D01*
X224423D01*
Y98192D01*
X224481D01*
Y98308D01*
X224538D01*
Y98423D01*
X224596D01*
Y98539D01*
X224654D01*
Y98654D01*
X224711D01*
Y98827D01*
X224769D01*
Y98885D01*
X224827D01*
Y99058D01*
X224885D01*
Y99115D01*
X224942D01*
Y99231D01*
X225000D01*
Y99346D01*
X225058D01*
Y99461D01*
X225115D01*
Y99577D01*
X225173D01*
Y99692D01*
X225231D01*
Y99808D01*
X225288D01*
Y99923D01*
X225346D01*
Y99981D01*
X225404D01*
Y100154D01*
X225462D01*
Y100211D01*
X225519D01*
Y100327D01*
X225577D01*
Y100442D01*
X225635D01*
Y100558D01*
X225692D01*
Y100673D01*
X225750D01*
Y100731D01*
X225808D01*
Y100846D01*
X225865D01*
Y100962D01*
X225923D01*
Y101077D01*
X225981D01*
Y101192D01*
X226038D01*
Y101250D01*
X226096D01*
Y101365D01*
X226154D01*
Y101481D01*
X226211D01*
Y101596D01*
X226269D01*
Y101654D01*
X226327D01*
Y101769D01*
X226385D01*
Y101885D01*
X226442D01*
Y101942D01*
X226500D01*
Y102115D01*
X226558D01*
Y102173D01*
X226615D01*
Y102289D01*
X226673D01*
Y102404D01*
X226731D01*
Y102462D01*
X226788D01*
Y102577D01*
X226846D01*
Y102692D01*
X226904D01*
Y102808D01*
X226961D01*
Y102865D01*
X227019D01*
Y102981D01*
X227077D01*
Y103096D01*
X227135D01*
Y103154D01*
X227192D01*
Y103269D01*
X227250D01*
Y103385D01*
X227308D01*
Y103500D01*
X227365D01*
Y103558D01*
X227423D01*
Y103673D01*
X227481D01*
Y103788D01*
X227539D01*
Y103846D01*
X227596D01*
Y103961D01*
X227654D01*
Y104077D01*
X227712D01*
Y104135D01*
X227769D01*
Y104250D01*
X227827D01*
Y104365D01*
X227885D01*
Y104481D01*
X227942D01*
Y104538D01*
X228000D01*
Y104654D01*
X228058D01*
Y104769D01*
X228115D01*
Y104827D01*
X228173D01*
Y104942D01*
X228231D01*
Y105058D01*
X228288D01*
Y105173D01*
X228346D01*
Y105231D01*
X228404D01*
Y105346D01*
X228461D01*
Y105462D01*
X228519D01*
Y105519D01*
X228577D01*
Y105635D01*
X228635D01*
Y105692D01*
X228692D01*
Y105808D01*
X228750D01*
Y105923D01*
X228808D01*
Y105981D01*
X228865D01*
Y106096D01*
X228923D01*
Y106212D01*
X228981D01*
Y106327D01*
X229039D01*
Y106385D01*
X229096D01*
Y106500D01*
X229154D01*
Y106615D01*
X229212D01*
Y106673D01*
X229269D01*
Y106789D01*
X229327D01*
Y106846D01*
X229385D01*
Y106961D01*
X229442D01*
Y107077D01*
X229500D01*
Y107135D01*
X229558D01*
Y107250D01*
X229615D01*
Y107308D01*
X229673D01*
Y107423D01*
X229731D01*
Y107538D01*
X229788D01*
Y107596D01*
X229846D01*
Y107711D01*
X229904D01*
Y107769D01*
X229961D01*
Y107942D01*
X230019D01*
Y108000D01*
X230077D01*
Y108115D01*
X230135D01*
Y108173D01*
X230192D01*
Y108288D01*
X230250D01*
Y108404D01*
X230308D01*
Y108462D01*
X230365D01*
Y108577D01*
X230423D01*
Y108635D01*
X230481D01*
Y108750D01*
X230539D01*
Y108865D01*
X230596D01*
Y108923D01*
X230654D01*
Y109038D01*
X230711D01*
Y109096D01*
X230769D01*
Y109212D01*
X230827D01*
Y109327D01*
X230885D01*
Y109385D01*
X230942D01*
Y109558D01*
X231000D01*
Y109615D01*
X231058D01*
Y109731D01*
X231115D01*
Y109789D01*
X231173D01*
Y109904D01*
X231231D01*
Y109962D01*
X231289D01*
Y110019D01*
X231346D01*
Y110192D01*
X231404D01*
Y110250D01*
X231462D01*
Y110308D01*
X231519D01*
Y110423D01*
X231577D01*
Y110481D01*
X231635D01*
Y110596D01*
X231692D01*
Y110654D01*
X231750D01*
Y110769D01*
X231808D01*
Y110827D01*
X231865D01*
Y110885D01*
X231923D01*
Y111000D01*
X231981D01*
Y111058D01*
X232038D01*
Y111173D01*
X232096D01*
Y111231D01*
X232154D01*
Y111346D01*
X232211D01*
Y111404D01*
X232269D01*
Y111461D01*
X232327D01*
Y111577D01*
X232385D01*
Y111635D01*
X232442D01*
Y111750D01*
X232500D01*
Y111808D01*
X232558D01*
Y111865D01*
X232615D01*
Y111981D01*
X232673D01*
Y112038D01*
X232731D01*
Y112154D01*
X232789D01*
Y112212D01*
X232846D01*
Y112269D01*
X232904D01*
Y112385D01*
X232962D01*
Y112442D01*
X233019D01*
Y112558D01*
X233077D01*
Y112615D01*
X233135D01*
Y112673D01*
X233192D01*
Y112731D01*
X233250D01*
Y112846D01*
X233308D01*
Y112904D01*
X233365D01*
Y112962D01*
X233423D01*
Y113077D01*
X233481D01*
Y113135D01*
X233538D01*
Y113250D01*
X233596D01*
Y113308D01*
X233654D01*
Y113365D01*
X233711D01*
Y113481D01*
X233769D01*
Y113539D01*
X233827D01*
Y113596D01*
X233885D01*
Y113654D01*
X233942D01*
Y113769D01*
X234000D01*
Y113827D01*
X234058D01*
Y113885D01*
X234115D01*
Y114000D01*
X234173D01*
Y114058D01*
X234231D01*
Y114115D01*
X234289D01*
Y114231D01*
X234346D01*
Y114289D01*
X234404D01*
Y114346D01*
X234461D01*
Y114404D01*
X234519D01*
Y114519D01*
X234577D01*
Y114577D01*
X234635D01*
Y114635D01*
X234692D01*
Y114750D01*
X234750D01*
Y114808D01*
X234808D01*
Y114865D01*
X234865D01*
Y114923D01*
X234923D01*
Y115038D01*
X234981D01*
Y115096D01*
X235039D01*
Y115154D01*
X235096D01*
Y115269D01*
X235154D01*
Y115327D01*
X235212D01*
Y115385D01*
X235269D01*
Y115500D01*
X235327D01*
Y115558D01*
X235385D01*
Y115615D01*
X235442D01*
Y115673D01*
X235500D01*
Y115788D01*
X235558D01*
Y115846D01*
X235615D01*
Y115904D01*
X235673D01*
Y116019D01*
X235731D01*
Y116077D01*
X235788D01*
Y116135D01*
X235846D01*
Y116192D01*
X235904D01*
Y116308D01*
X235961D01*
Y116365D01*
X236019D01*
Y116423D01*
X236077D01*
Y116481D01*
X236135D01*
Y116596D01*
X236192D01*
Y116654D01*
X236250D01*
Y116712D01*
X236308D01*
Y116769D01*
X236365D01*
Y116885D01*
X236423D01*
Y116942D01*
X236481D01*
Y117000D01*
X236539D01*
Y117058D01*
X236596D01*
Y117173D01*
X236654D01*
Y117231D01*
X236712D01*
Y117289D01*
X236769D01*
Y117404D01*
X236827D01*
Y117462D01*
X236885D01*
Y117519D01*
X236942D01*
Y117577D01*
X237000D01*
Y117635D01*
X237058D01*
Y117750D01*
X237115D01*
Y117808D01*
X237173D01*
Y117865D01*
X237231D01*
Y117923D01*
X237288D01*
Y118038D01*
X237346D01*
Y118096D01*
X237404D01*
Y118154D01*
X237461D01*
Y118211D01*
X237519D01*
Y118269D01*
X237577D01*
Y118385D01*
X237635D01*
Y118442D01*
X237692D01*
Y118500D01*
X237750D01*
Y118615D01*
X237808D01*
Y118673D01*
X237865D01*
Y118731D01*
X237923D01*
Y118788D01*
X237981D01*
Y118904D01*
X238039D01*
Y118961D01*
X238096D01*
Y119019D01*
X238154D01*
Y119077D01*
X238211D01*
Y119135D01*
X238269D01*
Y119250D01*
X238327D01*
Y119308D01*
X238385D01*
Y119365D01*
X238442D01*
Y119423D01*
X238500D01*
Y119481D01*
X238558D01*
Y119596D01*
X238615D01*
Y119654D01*
X238673D01*
Y119712D01*
X238731D01*
Y119769D01*
X238788D01*
Y119827D01*
X238846D01*
Y119942D01*
X238904D01*
Y120000D01*
X238962D01*
Y120058D01*
X239019D01*
Y120115D01*
X239077D01*
Y120231D01*
X239135D01*
Y120288D01*
X239192D01*
Y120346D01*
X239250D01*
Y120404D01*
X239308D01*
Y120462D01*
X239365D01*
Y120577D01*
X239423D01*
Y120635D01*
X239481D01*
Y120692D01*
X239538D01*
Y120750D01*
X239596D01*
Y120808D01*
X239654D01*
Y120923D01*
X239711D01*
Y120981D01*
X239769D01*
Y121039D01*
X239827D01*
Y121096D01*
X239885D01*
Y121212D01*
X239942D01*
Y121269D01*
X240000D01*
Y121327D01*
X240058D01*
Y121385D01*
X240115D01*
Y121442D01*
X240173D01*
Y121500D01*
X240231D01*
Y121615D01*
X240288D01*
Y121673D01*
X240346D01*
Y121731D01*
X240404D01*
Y121789D01*
X240462D01*
Y121904D01*
X240519D01*
Y121961D01*
X240577D01*
Y122019D01*
X240635D01*
Y122077D01*
X240692D01*
Y122135D01*
X240750D01*
Y122596D01*
X240692D01*
Y122711D01*
X240635D01*
Y122942D01*
X240577D01*
Y123058D01*
X240519D01*
Y123000D01*
X240462D01*
Y122942D01*
X240404D01*
Y122885D01*
X240346D01*
Y122827D01*
X240288D01*
Y122769D01*
X240231D01*
Y122711D01*
X240173D01*
Y122654D01*
X240058D01*
Y122538D01*
X239942D01*
Y122481D01*
X239885D01*
Y122423D01*
X239827D01*
Y122365D01*
X239769D01*
Y122308D01*
X239711D01*
Y122250D01*
X239596D01*
Y122192D01*
X239538D01*
Y122135D01*
X239481D01*
Y122077D01*
X239423D01*
Y122019D01*
X239308D01*
Y121961D01*
X239250D01*
Y121904D01*
X239192D01*
Y121846D01*
X239077D01*
Y121789D01*
X239019D01*
Y121731D01*
X238904D01*
Y121673D01*
X238846D01*
Y121615D01*
X238788D01*
Y121558D01*
X238615D01*
Y121500D01*
X238558D01*
Y121442D01*
X238442D01*
Y121385D01*
X238385D01*
Y121327D01*
X238269D01*
Y121269D01*
X238154D01*
Y121212D01*
X238039D01*
Y121154D01*
X237923D01*
Y121096D01*
X237808D01*
Y121039D01*
X237692D01*
Y120981D01*
X237519D01*
Y120923D01*
X237461D01*
Y120865D01*
X237288D01*
Y120808D01*
X237173D01*
Y120750D01*
X237000D01*
Y120692D01*
X236827D01*
Y120635D01*
X236654D01*
Y120577D01*
X236423D01*
Y120519D01*
X236308D01*
Y120462D01*
X236019D01*
Y120404D01*
X235788D01*
Y120346D01*
X235500D01*
Y120288D01*
X235096D01*
Y120231D01*
X234692D01*
Y120173D01*
X233481D01*
Y120231D01*
X233077D01*
Y120288D01*
X232731D01*
Y120346D01*
X232442D01*
Y120404D01*
X232269D01*
Y120462D01*
X231981D01*
Y120519D01*
X231865D01*
Y120577D01*
X231692D01*
Y120635D01*
X231519D01*
Y120692D01*
X231462D01*
Y120750D01*
X231289D01*
Y120808D01*
X231173D01*
Y120865D01*
X231058D01*
Y120923D01*
X230942D01*
Y120981D01*
X230885D01*
Y121039D01*
X230769D01*
Y121096D01*
X230711D01*
Y121154D01*
X230596D01*
Y121212D01*
X230539D01*
Y121269D01*
X230423D01*
Y121327D01*
X230365D01*
Y121385D01*
X230308D01*
Y121442D01*
X230250D01*
Y121500D01*
X230192D01*
Y121558D01*
X230077D01*
Y121615D01*
X230019D01*
Y121673D01*
X229961D01*
Y121789D01*
X229904D01*
Y121846D01*
X229846D01*
Y121904D01*
X229788D01*
Y121961D01*
X229731D01*
Y122019D01*
X229673D01*
Y122077D01*
X229615D01*
Y122135D01*
X229558D01*
Y122250D01*
X229500D01*
Y122365D01*
X229442D01*
Y122423D01*
X229385D01*
Y122538D01*
X229327D01*
Y122654D01*
X229269D01*
Y122769D01*
X229212D01*
Y122885D01*
X229154D01*
Y123058D01*
X229096D01*
Y123173D01*
X229039D01*
Y123346D01*
X228981D01*
Y123577D01*
X228923D01*
Y123750D01*
X228865D01*
Y124096D01*
X228808D01*
Y124442D01*
X228750D01*
Y125539D01*
X228808D01*
Y125942D01*
X228865D01*
Y126346D01*
X228923D01*
Y126461D01*
X228981D01*
Y126750D01*
X229039D01*
Y126923D01*
X229096D01*
Y127038D01*
X229154D01*
Y127269D01*
X229212D01*
Y127327D01*
X229269D01*
Y127558D01*
X229327D01*
Y127615D01*
X229385D01*
Y127788D01*
X229442D01*
Y127904D01*
X229500D01*
Y127962D01*
X229558D01*
Y128135D01*
X229615D01*
Y128192D01*
X229673D01*
Y128308D01*
X229731D01*
Y128365D01*
X229788D01*
Y128481D01*
X229846D01*
Y128596D01*
X229904D01*
Y128654D01*
X229961D01*
Y128769D01*
X230019D01*
Y128827D01*
X230077D01*
Y128885D01*
X230135D01*
Y129000D01*
X230192D01*
Y129058D01*
X230250D01*
Y129173D01*
X230365D01*
Y129289D01*
X230423D01*
Y129346D01*
X230481D01*
Y129404D01*
X230539D01*
Y129461D01*
X230596D01*
Y129519D01*
X230654D01*
Y129577D01*
X230711D01*
Y129635D01*
X230769D01*
Y129692D01*
X230827D01*
Y129750D01*
X230885D01*
Y129808D01*
X230942D01*
Y129865D01*
X231000D01*
Y129923D01*
X231058D01*
Y129981D01*
X231115D01*
Y130038D01*
X231173D01*
Y130096D01*
X231231D01*
Y130154D01*
X231289D01*
Y130211D01*
X231346D01*
Y130269D01*
X231462D01*
Y130327D01*
X231519D01*
Y130385D01*
X231577D01*
Y130442D01*
X231635D01*
Y130500D01*
X231692D01*
Y130558D01*
X231808D01*
Y130615D01*
X231865D01*
Y130673D01*
X231981D01*
Y130731D01*
X232038D01*
Y130788D01*
X232096D01*
Y130846D01*
X232211D01*
Y130904D01*
X232327D01*
Y130962D01*
X232442D01*
Y131019D01*
X232500D01*
Y131077D01*
X232558D01*
Y131135D01*
X232615D01*
Y131250D01*
X232558D01*
Y131308D01*
X232500D01*
Y131365D01*
X232442D01*
Y131423D01*
X232327D01*
Y131481D01*
X232269D01*
Y131538D01*
X232211D01*
Y131596D01*
X232154D01*
Y131654D01*
X232096D01*
Y131712D01*
X232038D01*
Y131769D01*
X231923D01*
Y131827D01*
X231865D01*
Y131885D01*
X231750D01*
Y131942D01*
X231692D01*
Y132000D01*
X231577D01*
Y132058D01*
X231519D01*
Y132115D01*
X231404D01*
Y132173D01*
X231346D01*
Y132231D01*
X231173D01*
Y132289D01*
X231115D01*
Y132346D01*
X231000D01*
Y132404D01*
X230885D01*
Y132462D01*
X230769D01*
Y132519D01*
X230654D01*
Y132577D01*
X230539D01*
Y132635D01*
X230365D01*
Y132692D01*
X230308D01*
Y132750D01*
X230135D01*
Y132808D01*
X229961D01*
Y132865D01*
X229846D01*
Y132923D01*
X229673D01*
Y132981D01*
X229558D01*
Y133039D01*
X229327D01*
Y133096D01*
X229154D01*
Y133154D01*
X228981D01*
Y133211D01*
X228750D01*
Y133269D01*
X228635D01*
Y133327D01*
X228346D01*
Y133385D01*
X228173D01*
Y133442D01*
X226788D01*
Y133385D01*
X226442D01*
Y133327D01*
X225865D01*
Y133269D01*
X225635D01*
Y133211D01*
X225231D01*
Y133154D01*
X224942D01*
Y133096D01*
X224711D01*
Y133039D01*
X224308D01*
Y132981D01*
X224135D01*
Y132923D01*
X223789D01*
Y132865D01*
X223558D01*
Y132808D01*
X223327D01*
Y132750D01*
X223039D01*
Y132692D01*
X222865D01*
Y132635D01*
X222577D01*
Y132577D01*
X222404D01*
Y132519D01*
X222115D01*
Y132462D01*
X221885D01*
Y132404D01*
X221712D01*
Y132346D01*
X221423D01*
Y132289D01*
X221250D01*
Y132231D01*
X220961D01*
Y132173D01*
X220788D01*
Y132115D01*
X220615D01*
Y132058D01*
X220385D01*
Y132000D01*
X220212D01*
Y131942D01*
X219923D01*
Y131885D01*
X219808D01*
Y131827D01*
X219519D01*
Y131769D01*
X219346D01*
Y131712D01*
X219173D01*
Y131654D01*
X218942D01*
Y131596D01*
X218769D01*
Y131538D01*
X218538D01*
Y131481D01*
X218365D01*
Y131423D01*
X218192D01*
Y131365D01*
X217962D01*
Y131308D01*
X217904D01*
Y131250D01*
X217846D01*
Y131192D01*
X217789D01*
Y131077D01*
X217731D01*
Y130962D01*
X217673D01*
Y130904D01*
X217615D01*
Y130788D01*
X217558D01*
Y130673D01*
X217500D01*
Y130558D01*
X217442D01*
Y130500D01*
X217385D01*
Y130385D01*
X217327D01*
Y130269D01*
X217269D01*
Y130211D01*
X217211D01*
Y130096D01*
X217154D01*
Y130038D01*
X217096D01*
Y129865D01*
X217038D01*
Y129808D01*
X216981D01*
Y129692D01*
X216923D01*
Y129577D01*
X216865D01*
Y129519D01*
X216808D01*
Y129404D01*
X216750D01*
Y129346D01*
X216692D01*
Y129173D01*
X216635D01*
Y129115D01*
X216577D01*
Y129000D01*
X216519D01*
Y128885D01*
X216462D01*
Y128827D01*
X216404D01*
Y128712D01*
X216346D01*
Y128596D01*
X216289D01*
Y128481D01*
X216231D01*
Y128423D01*
X216173D01*
Y128308D01*
X216115D01*
Y128192D01*
X216058D01*
Y128135D01*
X216000D01*
Y128019D01*
X215942D01*
Y127904D01*
X215885D01*
Y127788D01*
X215827D01*
Y127673D01*
X215769D01*
Y127615D01*
X215711D01*
Y127500D01*
X215654D01*
Y127442D01*
X215596D01*
Y127327D01*
X215539D01*
Y127212D01*
X215481D01*
Y127096D01*
X215423D01*
Y126981D01*
X215365D01*
Y126923D01*
X215308D01*
Y126808D01*
X215250D01*
Y126692D01*
X215192D01*
Y126577D01*
X215135D01*
Y126461D01*
X215077D01*
Y126404D01*
X215019D01*
Y126288D01*
X214961D01*
Y126173D01*
X214904D01*
Y126058D01*
X214846D01*
Y125942D01*
X214788D01*
Y125885D01*
X214731D01*
Y125769D01*
X214673D01*
Y125654D01*
X214615D01*
Y125539D01*
X214558D01*
Y125481D01*
X214500D01*
Y125365D01*
X214442D01*
Y125250D01*
X214385D01*
Y125135D01*
X214327D01*
Y125019D01*
X214269D01*
Y124904D01*
X214212D01*
Y124788D01*
X214154D01*
Y124673D01*
X214096D01*
Y124615D01*
X214039D01*
Y124442D01*
X213981D01*
Y124385D01*
X213923D01*
Y124269D01*
X213865D01*
Y124212D01*
X213808D01*
Y124096D01*
X213750D01*
Y124038D01*
X213692D01*
Y123981D01*
X213635D01*
Y123865D01*
X213577D01*
Y123808D01*
X213519D01*
Y123750D01*
X213461D01*
Y123692D01*
X213404D01*
Y123635D01*
X213346D01*
Y123519D01*
X213231D01*
Y123462D01*
X213173D01*
Y123404D01*
X213115D01*
Y123346D01*
X213058D01*
Y123288D01*
X213000D01*
Y123231D01*
X212885D01*
Y123173D01*
X212827D01*
Y123115D01*
X212712D01*
Y123058D01*
X212654D01*
Y123000D01*
X212423D01*
Y123058D01*
X212481D01*
Y123173D01*
X212539D01*
Y123404D01*
X212596D01*
Y123519D01*
X212654D01*
Y123750D01*
X212712D01*
Y123865D01*
X212769D01*
Y124038D01*
X212827D01*
Y124269D01*
X212885D01*
Y124327D01*
X212942D01*
Y124558D01*
X213000D01*
Y124673D01*
X213058D01*
Y124904D01*
X213115D01*
Y125019D01*
X213173D01*
Y125135D01*
X213231D01*
Y125365D01*
X213288D01*
Y125423D01*
X213346D01*
Y125654D01*
X213404D01*
Y125769D01*
X213461D01*
Y125885D01*
X213519D01*
Y126058D01*
X213577D01*
Y126173D01*
X213635D01*
Y126346D01*
X213692D01*
Y126461D01*
X213750D01*
Y126635D01*
X213808D01*
Y126750D01*
X213865D01*
Y126865D01*
X213923D01*
Y127038D01*
X213981D01*
Y127096D01*
X214039D01*
Y127269D01*
X214096D01*
Y127385D01*
X214154D01*
Y127500D01*
X214212D01*
Y127673D01*
X214269D01*
Y127731D01*
X214327D01*
Y127904D01*
X214385D01*
Y128019D01*
X214442D01*
Y128135D01*
X214500D01*
Y128250D01*
X214558D01*
Y128365D01*
X214615D01*
Y128481D01*
X214673D01*
Y128596D01*
X214731D01*
Y128712D01*
X214788D01*
Y128827D01*
X214846D01*
Y128942D01*
X214904D01*
Y129058D01*
X214961D01*
Y129115D01*
X215019D01*
Y129289D01*
X215077D01*
Y129346D01*
X215135D01*
Y129461D01*
X215192D01*
Y129577D01*
X215250D01*
Y129635D01*
X215308D01*
Y129808D01*
X215365D01*
Y129865D01*
X215423D01*
Y129981D01*
X215481D01*
Y130096D01*
X215539D01*
Y130154D01*
X215596D01*
Y130269D01*
X215654D01*
Y130327D01*
X215711D01*
Y130442D01*
X215769D01*
Y130558D01*
X215827D01*
Y130615D01*
X215885D01*
Y130731D01*
X215942D01*
Y130788D01*
X216000D01*
Y130904D01*
X216058D01*
Y130962D01*
X216115D01*
Y131077D01*
X216173D01*
Y131135D01*
X216231D01*
Y131250D01*
X216289D01*
Y131365D01*
X216346D01*
Y131423D01*
X216404D01*
Y131481D01*
X216462D01*
Y131538D01*
X216519D01*
Y131654D01*
X216577D01*
Y131712D01*
X216635D01*
Y131769D01*
X216692D01*
Y131885D01*
X216750D01*
Y131942D01*
X216808D01*
Y132058D01*
X216865D01*
Y132115D01*
X216923D01*
Y132173D01*
X216981D01*
Y132231D01*
X217038D01*
Y132289D01*
X217096D01*
Y132346D01*
X217154D01*
Y132404D01*
X217211D01*
Y132519D01*
X217269D01*
Y132577D01*
X217327D01*
Y132635D01*
X217385D01*
Y132692D01*
X217442D01*
Y132750D01*
X217500D01*
Y132808D01*
X217558D01*
Y132865D01*
X217615D01*
Y132923D01*
X217673D01*
Y132981D01*
X217731D01*
Y133039D01*
X217904D01*
Y133096D01*
X218077D01*
Y133154D01*
X218250D01*
Y133211D01*
X218538D01*
Y133269D01*
X218654D01*
Y133327D01*
X219000D01*
Y133385D01*
X219173D01*
Y133442D01*
X219404D01*
Y133500D01*
X219635D01*
Y133558D01*
X219808D01*
Y133615D01*
X220096D01*
Y133673D01*
X220269D01*
Y133731D01*
X220615D01*
Y133788D01*
X220788D01*
Y133846D01*
X221019D01*
Y133904D01*
X221308D01*
Y133961D01*
X221481D01*
Y134019D01*
X221827D01*
Y134077D01*
X222058D01*
Y134135D01*
X222346D01*
Y134192D01*
X222635D01*
Y134250D01*
X222808D01*
Y134308D01*
X223211D01*
Y134365D01*
X223385D01*
Y134423D01*
X223789D01*
Y134481D01*
X224019D01*
Y134538D01*
X224308D01*
Y134596D01*
X224711D01*
Y134654D01*
X225000D01*
Y134712D01*
X225462D01*
Y134769D01*
X225750D01*
Y134827D01*
X226269D01*
Y134885D01*
X226788D01*
Y134942D01*
X227308D01*
Y135000D01*
X228750D01*
Y134942D01*
X229039D01*
Y134885D01*
X229327D01*
Y134827D01*
X229558D01*
Y134769D01*
X229673D01*
Y134712D01*
X229904D01*
Y134654D01*
X230019D01*
Y134596D01*
X230192D01*
Y134538D01*
X230308D01*
Y134481D01*
X230423D01*
Y134423D01*
X230596D01*
Y134365D01*
X230654D01*
Y134308D01*
X230827D01*
Y134250D01*
X230885D01*
Y134192D01*
X231000D01*
Y134135D01*
X231115D01*
Y134077D01*
X231231D01*
Y134019D01*
X231346D01*
Y133961D01*
X231404D01*
Y133904D01*
X231577D01*
Y133846D01*
X231635D01*
Y133788D01*
X231750D01*
Y133731D01*
X231865D01*
Y133673D01*
X231923D01*
Y133615D01*
X232038D01*
Y133558D01*
X232096D01*
Y133500D01*
X232211D01*
Y133442D01*
X232327D01*
Y133385D01*
X232385D01*
Y133327D01*
X232500D01*
Y133269D01*
X232558D01*
Y133211D01*
X232673D01*
Y133154D01*
X232731D01*
Y133096D01*
X232846D01*
Y133039D01*
X232962D01*
Y132981D01*
X233019D01*
Y132923D01*
X233135D01*
Y132865D01*
X233192D01*
Y132808D01*
X233250D01*
Y132750D01*
X233365D01*
Y132692D01*
X233423D01*
Y132635D01*
X233538D01*
Y132577D01*
X233596D01*
Y132519D01*
X233654D01*
Y132462D01*
X233769D01*
Y132404D01*
X233827D01*
Y132346D01*
X233942D01*
Y132289D01*
X234000D01*
Y132231D01*
X234058D01*
Y132173D01*
X234173D01*
Y132115D01*
X234231D01*
Y132058D01*
X234346D01*
Y132000D01*
X234404D01*
Y131942D01*
X234865D01*
Y132000D01*
X235039D01*
Y132058D01*
X235269D01*
Y132115D01*
X235558D01*
Y132173D01*
X235788D01*
Y132231D01*
X237692D01*
Y132173D01*
X237981D01*
Y132115D01*
X238211D01*
Y132058D01*
X238500D01*
Y132000D01*
X238615D01*
Y132173D01*
X238558D01*
Y132404D01*
X238500D01*
Y132577D01*
X238442D01*
Y132635D01*
X238385D01*
Y132750D01*
X238327D01*
Y132808D01*
X238269D01*
Y132865D01*
X238211D01*
Y132923D01*
X238154D01*
Y132981D01*
X238096D01*
Y133096D01*
X238039D01*
Y133154D01*
X237981D01*
Y133211D01*
X237923D01*
Y133269D01*
X237865D01*
Y133385D01*
X237808D01*
Y133442D01*
X237750D01*
Y133500D01*
X237692D01*
Y133558D01*
X237635D01*
Y133615D01*
X237577D01*
Y133731D01*
X237519D01*
Y133788D01*
X237461D01*
Y133846D01*
X237404D01*
Y133904D01*
X237346D01*
Y133961D01*
X237288D01*
Y134077D01*
X237231D01*
Y134135D01*
X237173D01*
Y134192D01*
X237115D01*
Y134308D01*
X236885D01*
Y134365D01*
X236712D01*
Y134423D01*
X236365D01*
Y134481D01*
X236135D01*
Y134538D01*
X235904D01*
Y134596D01*
X235615D01*
Y134654D01*
X235442D01*
Y134712D01*
X235096D01*
Y134769D01*
X234923D01*
Y134827D01*
X234635D01*
Y134885D01*
X234404D01*
Y134942D01*
X234173D01*
Y135000D01*
X233885D01*
Y135058D01*
X233481D01*
Y135000D01*
X233308D01*
Y134942D01*
X233192D01*
Y134885D01*
X233077D01*
Y134827D01*
X233019D01*
Y134769D01*
X232904D01*
Y134712D01*
X232846D01*
Y134654D01*
X232789D01*
Y134596D01*
X232673D01*
Y134538D01*
X232615D01*
Y134481D01*
X232558D01*
Y134423D01*
X232500D01*
Y134365D01*
X232442D01*
Y134308D01*
X232385D01*
Y134250D01*
X232327D01*
Y134308D01*
X232269D01*
Y134365D01*
X232327D01*
Y134712D01*
X232385D01*
Y134885D01*
X232442D01*
Y135173D01*
X232500D01*
Y135346D01*
X232558D01*
Y135519D01*
X232615D01*
Y135692D01*
X232673D01*
Y135750D01*
X232731D01*
Y135923D01*
X232789D01*
Y135981D01*
X232846D01*
Y136096D01*
X232904D01*
Y136212D01*
X232962D01*
Y136269D01*
X233019D01*
Y136327D01*
X233077D01*
Y136385D01*
X233192D01*
Y136442D01*
X233250D01*
Y136500D01*
X234115D01*
Y136442D01*
X234289D01*
Y136385D01*
X234635D01*
Y136327D01*
X234808D01*
Y136269D01*
X235039D01*
Y136212D01*
X235269D01*
Y136154D01*
X235385D01*
Y136096D01*
X235673D01*
Y136039D01*
X235788D01*
Y135981D01*
X236019D01*
Y135923D01*
X236192D01*
Y135865D01*
X236365D01*
Y135808D01*
X236596D01*
Y135750D01*
X236712D01*
Y135692D01*
X237058D01*
Y135635D01*
X237231D01*
Y135577D01*
X237577D01*
Y135519D01*
X237808D01*
Y135462D01*
X237923D01*
Y135404D01*
X238039D01*
Y135346D01*
X238096D01*
Y135288D01*
X238154D01*
Y135231D01*
X238211D01*
Y135173D01*
X238269D01*
Y135115D01*
X238327D01*
Y135058D01*
X238385D01*
Y135000D01*
X238442D01*
Y134942D01*
X238500D01*
Y134885D01*
X238558D01*
Y134827D01*
X238615D01*
Y134769D01*
X238673D01*
Y134712D01*
X238731D01*
Y134654D01*
X238788D01*
Y134596D01*
X238846D01*
Y134481D01*
X238904D01*
Y134423D01*
X238962D01*
Y134365D01*
X239019D01*
Y134308D01*
X239077D01*
Y134250D01*
X239135D01*
Y134192D01*
X239192D01*
Y134135D01*
X239250D01*
Y134019D01*
X239308D01*
Y133961D01*
X239365D01*
Y133904D01*
X239423D01*
Y133846D01*
X239481D01*
Y133731D01*
X239538D01*
Y133673D01*
X239596D01*
Y133615D01*
X239654D01*
Y133500D01*
X239711D01*
Y133442D01*
X239769D01*
Y133385D01*
X239827D01*
Y133327D01*
X239885D01*
Y133269D01*
X239942D01*
Y133154D01*
X240000D01*
Y133096D01*
X240058D01*
Y132981D01*
X240115D01*
Y132923D01*
X240173D01*
Y132865D01*
X240231D01*
Y132750D01*
X240288D01*
Y132692D01*
X240346D01*
Y132635D01*
X240404D01*
Y132577D01*
X240462D01*
Y132462D01*
X240519D01*
Y132404D01*
X240577D01*
Y132289D01*
X240635D01*
Y132231D01*
X240692D01*
Y132173D01*
X240750D01*
Y132058D01*
X240808D01*
Y132000D01*
X240865D01*
Y131942D01*
X240923D01*
Y131827D01*
X240981D01*
Y131769D01*
X241038D01*
Y131654D01*
X241096D01*
Y131596D01*
X241154D01*
Y131481D01*
X241211D01*
Y131423D01*
X241269D01*
Y131365D01*
X241327D01*
Y131250D01*
X241385D01*
Y131192D01*
X241442D01*
Y131077D01*
X241500D01*
Y131019D01*
X241558D01*
Y130962D01*
X241615D01*
Y130846D01*
X241673D01*
Y130788D01*
X241731D01*
Y130673D01*
X241789D01*
Y130615D01*
X241846D01*
Y130500D01*
X241904D01*
Y130442D01*
X241961D01*
Y130385D01*
X242019D01*
Y130269D01*
X242077D01*
Y130211D01*
X242135D01*
Y130154D01*
X242423D01*
Y130211D01*
X242654D01*
Y130269D01*
X243115D01*
Y130327D01*
X243404D01*
Y130385D01*
X243577D01*
Y130442D01*
X243635D01*
Y130615D01*
X243577D01*
Y130846D01*
X243519D01*
Y131250D01*
X243461D01*
Y131481D01*
X243404D01*
Y131942D01*
X243346D01*
Y132173D01*
X243288D01*
Y132462D01*
X243231D01*
Y132865D01*
X243173D01*
Y133096D01*
X243115D01*
Y133558D01*
X243058D01*
Y133788D01*
X243000D01*
Y134135D01*
X242942D01*
Y134481D01*
X242885D01*
Y134712D01*
X242827D01*
Y135115D01*
X242769D01*
Y135346D01*
X242712D01*
Y135750D01*
X242654D01*
Y136039D01*
X242596D01*
Y136269D01*
X242539D01*
Y136673D01*
X242481D01*
Y136846D01*
X242423D01*
Y137250D01*
X242365D01*
Y137481D01*
X242308D01*
Y137711D01*
X242250D01*
Y138000D01*
X242192D01*
Y138808D01*
X242250D01*
Y139096D01*
X242308D01*
Y139269D01*
X242365D01*
Y139327D01*
X242423D01*
Y139500D01*
X242481D01*
Y139615D01*
X242539D01*
Y139731D01*
X242596D01*
Y139789D01*
X242654D01*
Y139846D01*
X242712D01*
Y139962D01*
X242827D01*
Y140077D01*
X242885D01*
Y140135D01*
X242942D01*
Y140192D01*
X243000D01*
Y140250D01*
X243058D01*
Y140308D01*
X243115D01*
Y140365D01*
X243173D01*
Y140423D01*
X243231D01*
Y140481D01*
X243288D01*
Y140539D01*
X243404D01*
Y140654D01*
X243519D01*
Y140769D01*
X243635D01*
Y140827D01*
X243692D01*
Y140885D01*
X243750D01*
Y140942D01*
X243808D01*
Y141000D01*
X243865D01*
Y141058D01*
X243923D01*
Y141115D01*
X243981D01*
Y141173D01*
X244039D01*
Y141231D01*
X244096D01*
Y141288D01*
X244154D01*
Y141346D01*
X244212D01*
Y141404D01*
X244269D01*
Y141461D01*
X244327D01*
Y141519D01*
X244385D01*
Y141577D01*
X244442D01*
Y141635D01*
X244558D01*
Y141692D01*
X244615D01*
Y141750D01*
X244673D01*
Y141808D01*
X244731D01*
Y141865D01*
X244788D01*
Y141923D01*
X244846D01*
Y141981D01*
X244904D01*
Y142038D01*
X244961D01*
Y142096D01*
X245019D01*
Y142154D01*
X245077D01*
Y142212D01*
X245192D01*
Y142269D01*
X245250D01*
Y142327D01*
X245308D01*
Y142385D01*
X245365D01*
Y142442D01*
X245423D01*
Y142500D01*
X245481D01*
Y142558D01*
X245538D01*
Y142615D01*
X245596D01*
Y142673D01*
X245654D01*
Y142731D01*
X245769D01*
Y142788D01*
X245827D01*
Y142846D01*
X245885D01*
Y142904D01*
X245942D01*
Y142962D01*
X246000D01*
Y143019D01*
X246115D01*
Y143077D01*
X246173D01*
Y143135D01*
X246231D01*
Y143192D01*
X246289D01*
Y143250D01*
X246346D01*
Y143308D01*
X246404D01*
Y143365D01*
X246462D01*
Y143423D01*
X246577D01*
Y143481D01*
X246635D01*
Y143538D01*
X246692D01*
Y143596D01*
X246808D01*
Y143654D01*
X246865D01*
Y143712D01*
X246923D01*
Y143769D01*
X246981D01*
Y143827D01*
X247096D01*
Y143885D01*
X247154D01*
Y143942D01*
X247211D01*
Y144000D01*
X247327D01*
Y144058D01*
X247385D01*
Y144115D01*
X247500D01*
Y144173D01*
X247558D01*
Y144231D01*
X247673D01*
Y144289D01*
X247789D01*
Y144346D01*
X247846D01*
Y144404D01*
X248423D01*
Y144346D01*
X248538D01*
Y144289D01*
X248711D01*
Y144231D01*
X248885D01*
Y144173D01*
X249000D01*
Y144115D01*
X249115D01*
Y144058D01*
X249231D01*
Y144000D01*
X249404D01*
Y143942D01*
X249461D01*
Y143885D01*
X249577D01*
Y143827D01*
X249692D01*
Y143769D01*
X249808D01*
Y143712D01*
X249923D01*
Y143654D01*
X250039D01*
Y143596D01*
X250154D01*
Y143538D01*
X250269D01*
Y143481D01*
X250327D01*
Y143423D01*
X250442D01*
Y143365D01*
X250558D01*
Y143308D01*
X250673D01*
Y143250D01*
X250731D01*
Y143192D01*
X250846D01*
Y143135D01*
X250961D01*
Y143077D01*
X251019D01*
Y143019D01*
X251135D01*
Y142962D01*
X251250D01*
Y142904D01*
X251365D01*
Y142846D01*
X251423D01*
Y142788D01*
X251539D01*
Y142731D01*
X251654D01*
Y142673D01*
X251712D01*
Y142615D01*
X251827D01*
Y142558D01*
X251885D01*
Y142500D01*
X252000D01*
Y142442D01*
X252115D01*
Y142212D01*
X252058D01*
Y142154D01*
X252000D01*
Y142038D01*
X251942D01*
Y141923D01*
X251885D01*
Y141865D01*
X251827D01*
Y141750D01*
X251769D01*
Y141692D01*
X251712D01*
Y141635D01*
X251539D01*
Y141692D01*
X251481D01*
Y141750D01*
X251308D01*
Y141808D01*
X251192D01*
Y141865D01*
X251135D01*
Y141923D01*
X250961D01*
Y141981D01*
X250904D01*
Y142038D01*
X250731D01*
Y142096D01*
X250615D01*
Y142154D01*
X250500D01*
Y142212D01*
X250385D01*
Y142269D01*
X250327D01*
Y142327D01*
X250154D01*
Y142385D01*
X250039D01*
Y142442D01*
X249923D01*
Y142500D01*
X249808D01*
Y142558D01*
X249692D01*
Y142615D01*
X249519D01*
Y142673D01*
X249461D01*
Y142731D01*
X249289D01*
Y142788D01*
X249231D01*
Y142846D01*
X249115D01*
Y142904D01*
X248942D01*
Y142962D01*
X248885D01*
Y143019D01*
X248711D01*
Y143077D01*
X248654D01*
Y143135D01*
X248481D01*
Y143192D01*
X248365D01*
Y143250D01*
X248250D01*
Y143192D01*
X248192D01*
Y143135D01*
X248077D01*
Y143077D01*
X248019D01*
Y143019D01*
X247962D01*
Y142962D01*
X247904D01*
Y142904D01*
X247846D01*
Y142846D01*
X247789D01*
Y142788D01*
X247731D01*
Y142731D01*
X247673D01*
Y142673D01*
X247615D01*
Y142615D01*
X247500D01*
Y142558D01*
X247442D01*
Y142500D01*
X247385D01*
Y142442D01*
X247327D01*
Y142385D01*
X247269D01*
Y142327D01*
X247211D01*
Y142269D01*
X247154D01*
Y142212D01*
X247096D01*
Y142154D01*
X247038D01*
Y142096D01*
X246981D01*
Y142038D01*
X246865D01*
Y141981D01*
X246808D01*
Y141923D01*
X246750D01*
Y141865D01*
X246692D01*
Y141808D01*
X246635D01*
Y141750D01*
X246577D01*
Y141692D01*
X246519D01*
Y141635D01*
X246462D01*
Y141577D01*
X246404D01*
Y141519D01*
X246346D01*
Y141461D01*
X246289D01*
Y141404D01*
X246173D01*
Y141346D01*
X246115D01*
Y141288D01*
X246058D01*
Y141231D01*
X246000D01*
Y141173D01*
X245942D01*
Y141115D01*
X245885D01*
Y141058D01*
X245827D01*
Y141000D01*
X245769D01*
Y140942D01*
X245654D01*
Y140885D01*
X245596D01*
Y140827D01*
X245538D01*
Y140769D01*
X245481D01*
Y140711D01*
X245423D01*
Y140654D01*
X245365D01*
Y140596D01*
X245308D01*
Y140539D01*
X245250D01*
Y140481D01*
X245192D01*
Y140423D01*
X245135D01*
Y140365D01*
X245019D01*
Y140250D01*
X244904D01*
Y140192D01*
X244846D01*
Y140135D01*
X244788D01*
Y140077D01*
X244731D01*
Y140019D01*
X244673D01*
Y139962D01*
X244615D01*
Y139904D01*
X244558D01*
Y139846D01*
X244442D01*
Y139789D01*
X244385D01*
Y139731D01*
X244327D01*
Y139673D01*
X244269D01*
Y139615D01*
X244212D01*
Y139558D01*
X244154D01*
Y139500D01*
X244096D01*
Y139442D01*
X244039D01*
Y139385D01*
X243981D01*
Y139327D01*
X243923D01*
Y138519D01*
X243981D01*
Y138058D01*
X244039D01*
Y137538D01*
X244096D01*
Y136846D01*
X244154D01*
Y136442D01*
X244212D01*
Y135692D01*
X244269D01*
Y135288D01*
X244327D01*
Y134654D01*
X244385D01*
Y134077D01*
X244442D01*
Y133673D01*
X244500D01*
Y132865D01*
X244558D01*
Y132519D01*
X244615D01*
Y131769D01*
X244673D01*
Y131308D01*
X244731D01*
Y130788D01*
X244788D01*
Y130442D01*
X244846D01*
Y130385D01*
X245365D01*
Y130327D01*
X245885D01*
Y130385D01*
X245942D01*
Y130442D01*
X246000D01*
Y130615D01*
X246058D01*
Y130673D01*
X246115D01*
Y130788D01*
X246173D01*
Y130904D01*
X246231D01*
Y130962D01*
X246289D01*
Y131077D01*
X246346D01*
Y131192D01*
X246404D01*
Y131308D01*
X246462D01*
Y131365D01*
X246519D01*
Y131481D01*
X246577D01*
Y131596D01*
X246635D01*
Y131654D01*
X246692D01*
Y131827D01*
X246750D01*
Y131885D01*
X246808D01*
Y132000D01*
X246865D01*
Y132115D01*
X246923D01*
Y132173D01*
X246981D01*
Y132289D01*
X247038D01*
Y132404D01*
X247096D01*
Y132462D01*
X247154D01*
Y132577D01*
X247211D01*
Y132692D01*
X247269D01*
Y132808D01*
X247327D01*
Y132865D01*
X247385D01*
Y132981D01*
X247442D01*
Y133096D01*
X247500D01*
Y133154D01*
X247558D01*
Y133269D01*
X247615D01*
Y133385D01*
X247673D01*
Y133500D01*
X247731D01*
Y133558D01*
X247789D01*
Y133673D01*
X247846D01*
Y133788D01*
X247904D01*
Y133846D01*
X247962D01*
Y134019D01*
X248019D01*
Y134077D01*
X248077D01*
Y134192D01*
X248135D01*
Y134250D01*
X248192D01*
Y134365D01*
X248250D01*
Y134481D01*
X248308D01*
Y134538D01*
X248365D01*
Y134712D01*
X248423D01*
Y134769D01*
X248481D01*
Y134885D01*
X248538D01*
Y135000D01*
X248596D01*
Y135058D01*
X248654D01*
Y135173D01*
X248711D01*
Y135231D01*
X248769D01*
Y135404D01*
X248827D01*
Y135462D01*
X248885D01*
Y135577D01*
X248942D01*
Y135692D01*
X249000D01*
Y135750D01*
X249058D01*
Y135865D01*
X249115D01*
Y135981D01*
X249173D01*
Y136096D01*
X249231D01*
Y136154D01*
X249289D01*
Y136269D01*
X249346D01*
Y136385D01*
X249404D01*
Y136442D01*
X249461D01*
Y136558D01*
X249519D01*
Y136673D01*
X249577D01*
Y136731D01*
X249635D01*
Y136846D01*
X249692D01*
Y136961D01*
X249750D01*
Y137077D01*
X249808D01*
Y137135D01*
X249865D01*
Y137250D01*
X249923D01*
Y137365D01*
X249981D01*
Y137423D01*
X250039D01*
Y137596D01*
X250096D01*
Y137654D01*
X250154D01*
Y137769D01*
X250212D01*
Y137827D01*
X250269D01*
Y137942D01*
X250327D01*
Y138058D01*
X250385D01*
Y138115D01*
X250442D01*
Y138231D01*
X250500D01*
Y138346D01*
X250558D01*
Y138462D01*
X250615D01*
Y138519D01*
X250673D01*
Y138635D01*
X250731D01*
Y138750D01*
X250788D01*
Y138808D01*
X250846D01*
Y138923D01*
X250904D01*
Y139038D01*
X250961D01*
Y139096D01*
X251019D01*
Y139212D01*
X251077D01*
Y139269D01*
X251135D01*
Y139442D01*
X251192D01*
Y139500D01*
X251250D01*
Y139615D01*
X251308D01*
Y139673D01*
X251365D01*
Y139789D01*
X251423D01*
Y139904D01*
X251481D01*
Y139962D01*
X251539D01*
Y140077D01*
X251596D01*
Y140135D01*
X251654D01*
Y140250D01*
X251712D01*
Y140308D01*
X251769D01*
Y140365D01*
X251827D01*
Y140481D01*
X251885D01*
Y140539D01*
X251942D01*
Y140654D01*
X252000D01*
Y140711D01*
X252058D01*
Y140769D01*
X252115D01*
Y140885D01*
X252173D01*
Y140942D01*
X252231D01*
Y141000D01*
X252288D01*
Y141058D01*
X252346D01*
Y141173D01*
X252404D01*
Y141231D01*
X252461D01*
Y141288D01*
X252519D01*
Y141346D01*
X252577D01*
Y141404D01*
X252635D01*
Y141519D01*
X252692D01*
Y141577D01*
X252750D01*
Y141635D01*
X252808D01*
Y141692D01*
X252865D01*
Y141750D01*
X252923D01*
Y141865D01*
X252981D01*
Y141923D01*
X253039D01*
Y141981D01*
X253096D01*
Y142038D01*
X253154D01*
Y142096D01*
X253211D01*
Y142154D01*
X253269D01*
Y142212D01*
X253327D01*
Y142269D01*
X253385D01*
Y142327D01*
X253442D01*
Y142385D01*
X253500D01*
Y142442D01*
X253558D01*
Y142500D01*
X253615D01*
Y142558D01*
X253673D01*
Y142615D01*
X253731D01*
Y142673D01*
X253789D01*
Y142731D01*
X253846D01*
Y142788D01*
X253904D01*
Y142846D01*
X253962D01*
Y142904D01*
X254077D01*
Y142962D01*
X254135D01*
Y143019D01*
X254192D01*
Y143077D01*
X254250D01*
Y143135D01*
X254365D01*
Y143192D01*
X254423D01*
Y143250D01*
X254538D01*
Y143308D01*
X254711D01*
Y143365D01*
X254827D01*
Y143423D01*
X255231D01*
Y143481D01*
X255923D01*
Y143423D01*
X256385D01*
Y143365D01*
X256558D01*
Y143423D01*
X256789D01*
Y143481D01*
X256904D01*
Y143538D01*
X257019D01*
Y143596D01*
X257250D01*
Y143654D01*
X257308D01*
Y143712D01*
X257538D01*
Y143769D01*
X257654D01*
Y143827D01*
X257827D01*
Y143885D01*
X258000D01*
Y143942D01*
X258115D01*
Y144000D01*
X258346D01*
Y144058D01*
X258404D01*
Y144115D01*
X258635D01*
Y144173D01*
X258750D01*
Y144231D01*
X258923D01*
Y144289D01*
X259096D01*
Y144346D01*
X259212D01*
Y144404D01*
X259442D01*
Y144461D01*
X259558D01*
Y144519D01*
X259731D01*
Y144577D01*
X259904D01*
Y144635D01*
X260019D01*
Y144692D01*
X260250D01*
Y144750D01*
X260308D01*
X260365D01*
D02*
G37*
G36*
X183000Y201132D02*
Y211132D01*
X178000Y206132D01*
X183000Y201132D01*
D02*
G37*
G36*
Y215000D02*
Y225000D01*
X178000Y220000D01*
X183000Y215000D01*
D02*
G37*
G36*
X372447Y227852D02*
X372580Y227819D01*
X372680Y227802D01*
X372780Y227769D01*
X372846Y227736D01*
X372880Y227719D01*
X372896D01*
X373130Y227602D01*
X373313Y227469D01*
X373380Y227402D01*
X373430Y227353D01*
X373463Y227319D01*
X373480Y227302D01*
X373680Y227069D01*
X373813Y226836D01*
X373913Y226603D01*
X373996Y226386D01*
X374030Y226203D01*
X374046Y226053D01*
X374063Y225953D01*
Y225936D01*
Y225919D01*
X374046Y225636D01*
X373979Y225370D01*
X373896Y225136D01*
X373796Y224937D01*
X373680Y224770D01*
X373596Y224636D01*
X373530Y224570D01*
X373513Y224537D01*
X373330Y224370D01*
X373130Y224253D01*
X372946Y224153D01*
X372780Y224070D01*
X372630Y224020D01*
X372513Y223987D01*
X372447Y223953D01*
X372413D01*
X372197Y223937D01*
X371980D01*
X371780Y223970D01*
X371597Y224020D01*
X371447Y224070D01*
X371330Y224103D01*
X371264Y224137D01*
X371230Y224153D01*
X371030Y224253D01*
X370880Y224387D01*
X370814Y224437D01*
X370764Y224487D01*
X370730Y224503D01*
X370714Y224520D01*
X370564Y224703D01*
X370447Y224870D01*
X370397Y224937D01*
X370380Y224986D01*
X370347Y225020D01*
Y225036D01*
X370214Y225270D01*
X368464Y225253D01*
X367248D01*
X367098Y225236D01*
X366831D01*
X366731Y225220D01*
X366665D01*
X366598Y225203D01*
X366531Y225186D01*
X366515D01*
X366381Y225153D01*
X366265Y225103D01*
X366165Y225053D01*
X366148Y225036D01*
X366132D01*
X365998Y224970D01*
X365898Y224903D01*
X365832Y224870D01*
X365815Y224853D01*
X365782Y224820D01*
X365732Y224770D01*
X365582Y224636D01*
X365515Y224553D01*
X365465Y224503D01*
X365415Y224453D01*
X365398Y224437D01*
X365115Y224137D01*
X364965Y224003D01*
X364832Y223853D01*
X364715Y223737D01*
X364632Y223637D01*
X364565Y223570D01*
X364549Y223554D01*
X364182Y223170D01*
X363999Y222987D01*
X363832Y222804D01*
X363699Y222654D01*
X363582Y222537D01*
X363516Y222470D01*
X363482Y222437D01*
X363282Y222220D01*
X363099Y222037D01*
X362949Y221871D01*
X362832Y221737D01*
X362732Y221637D01*
X362666Y221554D01*
X362616Y221504D01*
X362599Y221487D01*
X361783Y220638D01*
X381977D01*
Y221454D01*
Y221637D01*
Y221787D01*
Y221887D01*
Y221987D01*
Y222037D01*
Y222071D01*
Y222104D01*
X381994Y222187D01*
X382011Y222220D01*
X382027D01*
X382044Y222204D01*
X382094Y222187D01*
X382161Y222137D01*
X382244Y222104D01*
X382311Y222054D01*
X382377Y222004D01*
X382427Y221987D01*
X382444Y221971D01*
X382777Y221787D01*
X382927Y221687D01*
X383077Y221604D01*
X383210Y221537D01*
X383310Y221471D01*
X383394Y221437D01*
X383410Y221421D01*
X383810Y221204D01*
X383994Y221087D01*
X384160Y221004D01*
X384310Y220921D01*
X384410Y220854D01*
X384493Y220821D01*
X384510Y220804D01*
X384710Y220688D01*
X384877Y220604D01*
X385010Y220521D01*
X385110Y220454D01*
X385193Y220421D01*
X385243Y220388D01*
X385277Y220354D01*
X385293D01*
X385443Y220254D01*
X385560Y220188D01*
X385643Y220138D01*
X385676Y220121D01*
X385793Y220054D01*
X385843Y220021D01*
X385876Y220004D01*
X385860Y219988D01*
X385826Y219954D01*
X385760Y219904D01*
X385676Y219854D01*
X385593Y219804D01*
X385527Y219771D01*
X385476Y219738D01*
X385460Y219721D01*
X385277Y219604D01*
X385043Y219471D01*
X384793Y219338D01*
X384543Y219188D01*
X384327Y219055D01*
X384127Y218938D01*
X384060Y218905D01*
X384010Y218871D01*
X383977Y218838D01*
X383960D01*
X381994Y217722D01*
Y218521D01*
X381977Y219338D01*
X366715D01*
X367165Y218888D01*
X367248Y218788D01*
X367348Y218671D01*
X367598Y218405D01*
X367714Y218272D01*
X367814Y218172D01*
X367898Y218105D01*
X367914Y218071D01*
X368348Y217605D01*
X368564Y217388D01*
X368747Y217205D01*
X368898Y217038D01*
X369031Y216905D01*
X369097Y216822D01*
X369131Y216789D01*
X369364Y216555D01*
X369564Y216339D01*
X369747Y216139D01*
X369914Y215972D01*
X370047Y215822D01*
X370181Y215706D01*
X370280Y215589D01*
X370380Y215489D01*
X370530Y215339D01*
X370614Y215256D01*
X370664Y215206D01*
X370680Y215189D01*
X370914Y215022D01*
X371130Y214906D01*
X371213Y214856D01*
X371280Y214839D01*
X371330Y214806D01*
X371347D01*
X371597Y214722D01*
X375062Y214706D01*
Y216022D01*
X379011D01*
Y212090D01*
X375062D01*
Y213406D01*
X372946D01*
X372630Y213423D01*
X371713D01*
X371613Y213439D01*
X371530D01*
X371464Y213456D01*
X371413D01*
X371380Y213473D01*
X371363D01*
X371030Y213556D01*
X370880Y213606D01*
X370747Y213656D01*
X370630Y213706D01*
X370547Y213739D01*
X370497Y213773D01*
X370480D01*
X370197Y213939D01*
X370064Y214023D01*
X369964Y214106D01*
X369864Y214172D01*
X369797Y214223D01*
X369747Y214256D01*
X369731Y214272D01*
X369681Y214322D01*
X369581Y214406D01*
X369464Y214539D01*
X369331Y214672D01*
X369197Y214806D01*
X369097Y214906D01*
X369014Y214989D01*
X368981Y215022D01*
X368731Y215289D01*
X368464Y215572D01*
X368198Y215839D01*
X367964Y216105D01*
X367764Y216322D01*
X367598Y216505D01*
X367531Y216572D01*
X367481Y216622D01*
X367464Y216639D01*
X367448Y216655D01*
X367131Y216989D01*
X366848Y217288D01*
X366581Y217555D01*
X366365Y217788D01*
X366165Y217972D01*
X366031Y218121D01*
X365948Y218205D01*
X365915Y218238D01*
X365698Y218471D01*
X365532Y218655D01*
X365415Y218771D01*
X365315Y218871D01*
X365265Y218921D01*
X365232Y218955D01*
X365215Y218971D01*
X365098Y219038D01*
X364982Y219105D01*
X364898Y219138D01*
X364882Y219155D01*
X364865D01*
X364748Y219205D01*
X364632Y219238D01*
X364565Y219271D01*
X364532D01*
X364449Y219288D01*
X364349Y219305D01*
X364099Y219321D01*
X363299D01*
X363082Y219338D01*
X356917D01*
X356867Y219121D01*
X356734Y218755D01*
X356651Y218588D01*
X356584Y218455D01*
X356517Y218321D01*
X356451Y218238D01*
X356417Y218172D01*
X356401Y218155D01*
X356284Y217988D01*
X356151Y217838D01*
X356034Y217705D01*
X355917Y217588D01*
X355817Y217505D01*
X355734Y217422D01*
X355684Y217388D01*
X355667Y217372D01*
X355334Y217155D01*
X355001Y216989D01*
X354684Y216872D01*
X354384Y216789D01*
X354135Y216739D01*
X354018Y216722D01*
X353935Y216705D01*
X353851Y216689D01*
X353751D01*
X353368Y216705D01*
X353002Y216772D01*
X352668Y216872D01*
X352385Y216989D01*
X352135Y217089D01*
X352035Y217139D01*
X351952Y217188D01*
X351885Y217238D01*
X351835Y217255D01*
X351819Y217288D01*
X351802D01*
X351652Y217388D01*
X351502Y217522D01*
X351435Y217572D01*
X351385Y217622D01*
X351352Y217638D01*
X351335Y217655D01*
X351169Y217838D01*
X351052Y217988D01*
X350985Y218071D01*
X350952Y218105D01*
X350802Y218372D01*
X350669Y218638D01*
X350569Y218888D01*
X350502Y219121D01*
X350435Y219321D01*
X350402Y219488D01*
X350386Y219588D01*
Y219604D01*
Y219621D01*
X350369Y219938D01*
X350386Y220221D01*
X350419Y220488D01*
X350469Y220737D01*
X350519Y220938D01*
X350552Y221087D01*
X350586Y221187D01*
X350602Y221221D01*
X350735Y221504D01*
X350885Y221754D01*
X351052Y221971D01*
X351202Y222154D01*
X351352Y222304D01*
X351469Y222420D01*
X351535Y222504D01*
X351569Y222520D01*
X351819Y222704D01*
X352085Y222870D01*
X352335Y222987D01*
X352568Y223070D01*
X352768Y223137D01*
X352935Y223187D01*
X353035Y223220D01*
X353068D01*
X353302Y223254D01*
X353951D01*
X354085Y223237D01*
X354201D01*
X354301Y223220D01*
X354384Y223204D01*
X354435D01*
X354468Y223187D01*
X354484D01*
X354801Y223087D01*
X355084Y222954D01*
X355334Y222804D01*
X355568Y222654D01*
X355734Y222520D01*
X355868Y222404D01*
X355951Y222337D01*
X355984Y222304D01*
X356201Y222054D01*
X356401Y221804D01*
X356551Y221571D01*
X356667Y221337D01*
X356751Y221154D01*
X356801Y220987D01*
X356834Y220888D01*
X356851Y220871D01*
Y220854D01*
X356900Y220638D01*
X358967D01*
X359133Y220654D01*
X359383D01*
X359583Y220688D01*
X359750Y220737D01*
X359800Y220771D01*
X359850Y220788D01*
X359883Y220804D01*
X359900D01*
X360000Y220854D01*
X360033Y220888D01*
X360050D01*
X360116Y220921D01*
X360166Y220954D01*
X360200Y220971D01*
X360216D01*
X360266Y221021D01*
X360350Y221087D01*
X360466Y221204D01*
X360583Y221321D01*
X360700Y221421D01*
X360783Y221521D01*
X360866Y221587D01*
X360883Y221621D01*
X361133Y221871D01*
X361399Y222154D01*
X361666Y222437D01*
X361933Y222704D01*
X362166Y222954D01*
X362366Y223154D01*
X362432Y223237D01*
X362482Y223287D01*
X362516Y223320D01*
X362532Y223337D01*
X362749Y223570D01*
X362949Y223787D01*
X363132Y223987D01*
X363316Y224170D01*
X363599Y224470D01*
X363849Y224720D01*
X364015Y224920D01*
X364149Y225053D01*
X364232Y225136D01*
X364249Y225153D01*
X364432Y225336D01*
X364582Y225486D01*
X364698Y225603D01*
X364799Y225686D01*
X364865Y225753D01*
X364915Y225786D01*
X364949Y225820D01*
X365148Y225953D01*
X365348Y226070D01*
X365432Y226103D01*
X365498Y226136D01*
X365532Y226169D01*
X365548D01*
X365798Y226286D01*
X365998Y226369D01*
X366082Y226403D01*
X366148Y226419D01*
X366181Y226436D01*
X366198D01*
X366481Y226519D01*
X370230Y226553D01*
X370347Y226786D01*
X370430Y226953D01*
X370530Y227086D01*
X370597Y227186D01*
X370630Y227202D01*
Y227219D01*
X370780Y227369D01*
X370914Y227469D01*
X370997Y227553D01*
X371014Y227569D01*
X371030D01*
X371147Y227636D01*
X371264Y227686D01*
X371347Y227719D01*
X371363Y227736D01*
X371380D01*
X371530Y227786D01*
X371647Y227836D01*
X371730Y227852D01*
X371763Y227869D01*
X371813Y227886D01*
X372163D01*
X372447Y227852D01*
D02*
G37*
D10*
X195500Y64500D02*
G03*
X195500Y64500I-500J0D01*
G01*
X303600Y199250D02*
G03*
X303600Y199250I-500J0D01*
G01*
X273500Y190000D02*
Y218000D01*
X259500Y190000D02*
X273500D01*
X259500D02*
Y218000D01*
X273500D01*
X273500D02*
X287500D01*
X273500Y190000D02*
Y218000D01*
Y190000D02*
X287500D01*
Y218000D01*
X326500Y205500D02*
X340500D01*
Y233500D01*
X326500D02*
X340500D01*
X326500Y205500D02*
Y233500D01*
X312500Y205500D02*
X326500D01*
Y233500D01*
X312500D02*
X326500D01*
X312500Y205500D02*
Y233500D01*
X298500Y205500D02*
X312500D01*
Y233500D01*
X298500D02*
X312500D01*
X298500Y205500D02*
Y233500D01*
X307000Y127985D02*
X321000D01*
X307000Y99985D02*
Y127985D01*
Y99985D02*
X321000D01*
Y127985D01*
X293000D02*
X307000D01*
X293000Y99985D02*
Y127985D01*
Y99985D02*
X307000D01*
Y127985D01*
X279000Y128000D02*
X293000D01*
X279000Y100000D02*
Y128000D01*
Y100000D02*
X293000D01*
Y128000D01*
X334234Y32000D02*
X348234D01*
X334234Y4000D02*
Y32000D01*
Y4000D02*
X348234D01*
Y32000D01*
X320000D02*
X334000D01*
X320000Y4000D02*
Y32000D01*
Y4000D02*
X334000D01*
Y32000D01*
X320000Y4000D02*
Y32000D01*
X306000Y4000D02*
X320000D01*
X306000D02*
Y32000D01*
X320000D01*
X292000Y4000D02*
Y32000D01*
X306000D01*
Y4000D02*
Y32000D01*
X292000Y4000D02*
X306000D01*
X292000D02*
Y32000D01*
X278000Y4000D02*
X292000D01*
X278000D02*
Y32000D01*
X292000D01*
X259000Y32000D02*
X273000Y32000D01*
X259000Y4000D02*
Y32000D01*
Y4000D02*
X273000D01*
X273000Y32000D01*
X259000Y4000D02*
Y32000D01*
X245000Y4000D02*
X259000D01*
X245000D02*
Y32000D01*
X259000D01*
X231000Y32000D02*
X245000D01*
X231000Y4000D02*
Y32000D01*
Y4000D02*
X245000D01*
Y32000D01*
X391416Y188322D02*
Y202322D01*
X363416D02*
X391416D01*
X363416Y188322D02*
Y202322D01*
Y188322D02*
X391416D01*
X183000Y80500D02*
X223000D01*
Y48500D02*
Y80500D01*
X183000Y48500D02*
X223000D01*
X183000D02*
Y80500D01*
X180000Y159000D02*
Y173000D01*
Y159000D02*
X208000D01*
Y173000D01*
X180000D02*
X208000D01*
X259500Y176000D02*
X287500D01*
X259500D02*
Y190000D01*
X287500D01*
Y176000D02*
Y190000D01*
X302000Y141000D02*
X305750D01*
X302000D02*
Y144750D01*
X351250Y141000D02*
X355000D01*
Y144750D01*
Y190250D02*
Y194000D01*
X351250D02*
X355000D01*
X302000D02*
X305750D01*
X302000Y190250D02*
Y194000D01*
X279000Y94000D02*
X307000D01*
Y80000D02*
Y94000D01*
X279000Y80000D02*
X307000D01*
X279000D02*
Y94000D01*
X363416Y162789D02*
X391416D01*
X363416D02*
Y176789D01*
X391416D01*
Y162789D02*
Y176789D01*
X287500Y218000D02*
Y232000D01*
X259500D02*
X287500D01*
X259500Y218000D02*
Y232000D01*
Y218000D02*
X287500D01*
X279000Y38000D02*
X307000D01*
X279000D02*
Y52000D01*
X307000D01*
Y38000D02*
Y52000D01*
X279000Y52000D02*
X279000Y66000D01*
X279000Y52000D02*
X307000Y52000D01*
X307000Y66000D01*
X279000Y66000D02*
X307000Y66000D01*
X307000Y66000D02*
Y80000D01*
X279000D02*
X307000D01*
X279000Y66000D02*
Y80000D01*
Y66000D02*
X307000D01*
X183000Y185193D02*
Y199193D01*
Y185193D02*
X211000D01*
Y199193D01*
X183000D02*
X211000D01*
X287500Y148000D02*
Y162000D01*
X259500D02*
X287500D01*
X259500Y148000D02*
Y162000D01*
Y148000D02*
X287500D01*
X251000Y80000D02*
X279000D01*
X251000D02*
Y94000D01*
X279000D01*
Y80000D02*
Y94000D01*
X251000Y80000D02*
X279000D01*
Y66000D02*
Y80000D01*
X251000Y66000D02*
X279000D01*
X251000D02*
Y80000D01*
X320234Y77000D02*
Y91000D01*
Y77000D02*
X348234D01*
Y91000D01*
X320234D02*
X348234D01*
X183000Y213000D02*
Y227000D01*
Y213000D02*
X211000D01*
Y227000D01*
X183000D02*
X211000D01*
X287500Y162000D02*
Y176000D01*
X259500D02*
X287500D01*
X259500Y162000D02*
Y176000D01*
Y162000D02*
X287500D01*
X183000Y199132D02*
Y213132D01*
Y199132D02*
X211000D01*
Y213132D01*
X183000D02*
X211000D01*
D11*
X262500Y38000D02*
G03*
X262500Y38000I-500J0D01*
G01*
X343899Y40000D02*
G03*
X343899Y40000I-500J0D01*
G01*
X324000Y98250D02*
G03*
X324000Y98250I-500J0D01*
G01*
X178000Y192192D02*
X183000Y187192D01*
X178000Y192192D02*
X183000Y197192D01*
X178000Y220000D02*
X183000Y215000D01*
X178000Y220000D02*
X183000Y225000D01*
X178000Y206132D02*
X183000Y201132D01*
X178000Y206132D02*
X183000Y211132D01*
M02*
